<mxfile host="app.diagrams.net" modified="2023-08-31T15:40:57.053Z" agent="Mozilla/5.0 (Windows NT 10.0; Win64; x64) AppleWebKit/537.36 (KHTML, like Gecko) Chrome/116.0.0.0 Safari/537.36 Edg/116.0.1938.54" etag="XhL_VuuB2oLpN3tEi0ox" version="21.6.8" type="github">
  <diagram name="Page-1" id="6oychFQd-ntfGYo9pwiV">
    <mxGraphModel dx="3789" dy="1697" grid="1" gridSize="10" guides="1" tooltips="1" connect="1" arrows="1" fold="1" page="1" pageScale="1" pageWidth="1100" pageHeight="850" math="0" shadow="0">
      <root>
        <mxCell id="0" />
        <mxCell id="1" parent="0" />
        <mxCell id="cEWxc5GHdfLxTCo6FRgi-1" value="Perimeter VPC" style="swimlane;whiteSpace=wrap;html=1;fillColor=#dae8fc;strokeColor=#6c8ebf;startSize=20;strokeWidth=2;" parent="1" vertex="1">
          <mxGeometry x="-230" y="-630" width="2380" height="1170" as="geometry" />
        </mxCell>
        <mxCell id="cEWxc5GHdfLxTCo6FRgi-3" value="TGW-Attach Subnet azA 10.63.0.0/28" style="swimlane;whiteSpace=wrap;html=1;startSize=30;fillColor=#dae8fc;strokeColor=#6c8ebf;movable=1;resizable=1;rotatable=1;deletable=1;editable=1;locked=0;connectable=1;" parent="cEWxc5GHdfLxTCo6FRgi-1" vertex="1">
          <mxGeometry x="30" y="60" width="360" height="420" as="geometry" />
        </mxCell>
        <mxCell id="cEWxc5GHdfLxTCo6FRgi-130" value="" style="shape=table;startSize=0;container=1;collapsible=0;childLayout=tableLayout;" parent="cEWxc5GHdfLxTCo6FRgi-3" vertex="1">
          <mxGeometry x="97" y="50" width="250" height="240" as="geometry" />
        </mxCell>
        <mxCell id="cEWxc5GHdfLxTCo6FRgi-131" value="" style="shape=tableRow;horizontal=0;startSize=0;swimlaneHead=0;swimlaneBody=0;strokeColor=inherit;top=0;left=0;bottom=0;right=0;collapsible=0;dropTarget=0;fillColor=none;points=[[0,0.5],[1,0.5]];portConstraint=eastwest;" parent="cEWxc5GHdfLxTCo6FRgi-130" vertex="1">
          <mxGeometry width="250" height="40" as="geometry" />
        </mxCell>
        <mxCell id="cEWxc5GHdfLxTCo6FRgi-132" value="100.96.192.0/23" style="shape=partialRectangle;html=1;whiteSpace=wrap;connectable=0;strokeColor=inherit;overflow=hidden;fillColor=none;top=0;left=0;bottom=0;right=0;pointerEvents=1;" parent="cEWxc5GHdfLxTCo6FRgi-131" vertex="1">
          <mxGeometry width="110" height="40" as="geometry">
            <mxRectangle width="110" height="40" as="alternateBounds" />
          </mxGeometry>
        </mxCell>
        <mxCell id="cEWxc5GHdfLxTCo6FRgi-133" value="Local" style="shape=partialRectangle;html=1;whiteSpace=wrap;connectable=0;strokeColor=inherit;overflow=hidden;fillColor=none;top=0;left=0;bottom=0;right=0;pointerEvents=1;" parent="cEWxc5GHdfLxTCo6FRgi-131" vertex="1">
          <mxGeometry x="110" width="140" height="40" as="geometry">
            <mxRectangle width="140" height="40" as="alternateBounds" />
          </mxGeometry>
        </mxCell>
        <mxCell id="cEWxc5GHdfLxTCo6FRgi-134" value="" style="shape=tableRow;horizontal=0;startSize=0;swimlaneHead=0;swimlaneBody=0;strokeColor=inherit;top=0;left=0;bottom=0;right=0;collapsible=0;dropTarget=0;fillColor=none;points=[[0,0.5],[1,0.5]];portConstraint=eastwest;" parent="cEWxc5GHdfLxTCo6FRgi-130" vertex="1">
          <mxGeometry y="40" width="250" height="40" as="geometry" />
        </mxCell>
        <mxCell id="cEWxc5GHdfLxTCo6FRgi-135" value="10.0.0.0/8" style="shape=partialRectangle;html=1;whiteSpace=wrap;connectable=0;strokeColor=inherit;overflow=hidden;fillColor=none;top=0;left=0;bottom=0;right=0;pointerEvents=1;" parent="cEWxc5GHdfLxTCo6FRgi-134" vertex="1">
          <mxGeometry width="110" height="40" as="geometry">
            <mxRectangle width="110" height="40" as="alternateBounds" />
          </mxGeometry>
        </mxCell>
        <mxCell id="cEWxc5GHdfLxTCo6FRgi-136" value="East-West Net" style="shape=partialRectangle;html=1;whiteSpace=wrap;connectable=0;strokeColor=inherit;overflow=hidden;fillColor=none;top=0;left=0;bottom=0;right=0;pointerEvents=1;" parent="cEWxc5GHdfLxTCo6FRgi-134" vertex="1">
          <mxGeometry x="110" width="140" height="40" as="geometry">
            <mxRectangle width="140" height="40" as="alternateBounds" />
          </mxGeometry>
        </mxCell>
        <mxCell id="cEWxc5GHdfLxTCo6FRgi-137" value="" style="shape=tableRow;horizontal=0;startSize=0;swimlaneHead=0;swimlaneBody=0;strokeColor=inherit;top=0;left=0;bottom=0;right=0;collapsible=0;dropTarget=0;fillColor=none;points=[[0,0.5],[1,0.5]];portConstraint=eastwest;" parent="cEWxc5GHdfLxTCo6FRgi-130" vertex="1">
          <mxGeometry y="80" width="250" height="40" as="geometry" />
        </mxCell>
        <mxCell id="cEWxc5GHdfLxTCo6FRgi-138" value="142.53.0.0/16" style="shape=partialRectangle;html=1;whiteSpace=wrap;connectable=0;strokeColor=inherit;overflow=hidden;fillColor=none;top=0;left=0;bottom=0;right=0;pointerEvents=1;" parent="cEWxc5GHdfLxTCo6FRgi-137" vertex="1">
          <mxGeometry width="110" height="40" as="geometry">
            <mxRectangle width="110" height="40" as="alternateBounds" />
          </mxGeometry>
        </mxCell>
        <mxCell id="cEWxc5GHdfLxTCo6FRgi-139" value="" style="shape=partialRectangle;html=1;whiteSpace=wrap;connectable=0;strokeColor=inherit;overflow=hidden;fillColor=none;top=0;left=0;bottom=0;right=0;pointerEvents=1;" parent="cEWxc5GHdfLxTCo6FRgi-137" vertex="1">
          <mxGeometry x="110" width="140" height="40" as="geometry">
            <mxRectangle width="140" height="40" as="alternateBounds" />
          </mxGeometry>
        </mxCell>
        <mxCell id="cEWxc5GHdfLxTCo6FRgi-140" value="" style="shape=tableRow;horizontal=0;startSize=0;swimlaneHead=0;swimlaneBody=0;strokeColor=inherit;top=0;left=0;bottom=0;right=0;collapsible=0;dropTarget=0;fillColor=none;points=[[0,0.5],[1,0.5]];portConstraint=eastwest;" parent="cEWxc5GHdfLxTCo6FRgi-130" vertex="1">
          <mxGeometry y="120" width="250" height="40" as="geometry" />
        </mxCell>
        <mxCell id="cEWxc5GHdfLxTCo6FRgi-141" value="161.187.0.0/16" style="shape=partialRectangle;html=1;whiteSpace=wrap;connectable=0;strokeColor=inherit;overflow=hidden;fillColor=none;top=0;left=0;bottom=0;right=0;pointerEvents=1;" parent="cEWxc5GHdfLxTCo6FRgi-140" vertex="1">
          <mxGeometry width="110" height="40" as="geometry">
            <mxRectangle width="110" height="40" as="alternateBounds" />
          </mxGeometry>
        </mxCell>
        <mxCell id="cEWxc5GHdfLxTCo6FRgi-142" value="" style="shape=partialRectangle;html=1;whiteSpace=wrap;connectable=0;strokeColor=inherit;overflow=hidden;fillColor=none;top=0;left=0;bottom=0;right=0;pointerEvents=1;" parent="cEWxc5GHdfLxTCo6FRgi-140" vertex="1">
          <mxGeometry x="110" width="140" height="40" as="geometry">
            <mxRectangle width="140" height="40" as="alternateBounds" />
          </mxGeometry>
        </mxCell>
        <mxCell id="cEWxc5GHdfLxTCo6FRgi-143" value="" style="shape=tableRow;horizontal=0;startSize=0;swimlaneHead=0;swimlaneBody=0;strokeColor=inherit;top=0;left=0;bottom=0;right=0;collapsible=0;dropTarget=0;fillColor=none;points=[[0,0.5],[1,0.5]];portConstraint=eastwest;" parent="cEWxc5GHdfLxTCo6FRgi-130" vertex="1">
          <mxGeometry y="160" width="250" height="40" as="geometry" />
        </mxCell>
        <mxCell id="cEWxc5GHdfLxTCo6FRgi-144" value="192.168.127.0/17" style="shape=partialRectangle;html=1;whiteSpace=wrap;connectable=0;strokeColor=inherit;overflow=hidden;fillColor=none;top=0;left=0;bottom=0;right=0;pointerEvents=1;" parent="cEWxc5GHdfLxTCo6FRgi-143" vertex="1">
          <mxGeometry width="110" height="40" as="geometry">
            <mxRectangle width="110" height="40" as="alternateBounds" />
          </mxGeometry>
        </mxCell>
        <mxCell id="cEWxc5GHdfLxTCo6FRgi-145" value="" style="shape=partialRectangle;html=1;whiteSpace=wrap;connectable=0;strokeColor=inherit;overflow=hidden;fillColor=none;top=0;left=0;bottom=0;right=0;pointerEvents=1;" parent="cEWxc5GHdfLxTCo6FRgi-143" vertex="1">
          <mxGeometry x="110" width="140" height="40" as="geometry">
            <mxRectangle width="140" height="40" as="alternateBounds" />
          </mxGeometry>
        </mxCell>
        <mxCell id="cEWxc5GHdfLxTCo6FRgi-146" value="" style="shape=tableRow;horizontal=0;startSize=0;swimlaneHead=0;swimlaneBody=0;strokeColor=inherit;top=0;left=0;bottom=0;right=0;collapsible=0;dropTarget=0;fillColor=none;points=[[0,0.5],[1,0.5]];portConstraint=eastwest;" parent="cEWxc5GHdfLxTCo6FRgi-130" vertex="1">
          <mxGeometry y="200" width="250" height="40" as="geometry" />
        </mxCell>
        <mxCell id="cEWxc5GHdfLxTCo6FRgi-147" value="0.0.0.0/0" style="shape=partialRectangle;html=1;whiteSpace=wrap;connectable=0;strokeColor=inherit;overflow=hidden;fillColor=none;top=0;left=0;bottom=0;right=0;pointerEvents=1;" parent="cEWxc5GHdfLxTCo6FRgi-146" vertex="1">
          <mxGeometry width="110" height="40" as="geometry">
            <mxRectangle width="110" height="40" as="alternateBounds" />
          </mxGeometry>
        </mxCell>
        <mxCell id="cEWxc5GHdfLxTCo6FRgi-148" value="GWLBe endpoint" style="shape=partialRectangle;html=1;whiteSpace=wrap;connectable=0;strokeColor=inherit;overflow=hidden;fillColor=#FFFF99;top=0;left=0;bottom=0;right=0;pointerEvents=1;" parent="cEWxc5GHdfLxTCo6FRgi-146" vertex="1">
          <mxGeometry x="110" width="140" height="40" as="geometry">
            <mxRectangle width="140" height="40" as="alternateBounds" />
          </mxGeometry>
        </mxCell>
        <mxCell id="cEWxc5GHdfLxTCo6FRgi-149" value="ENI for TGW &lt;br&gt;Attachment" style="sketch=0;outlineConnect=0;fontColor=#232F3E;gradientColor=none;fillColor=#4D27AA;strokeColor=none;dashed=0;verticalLabelPosition=bottom;verticalAlign=top;align=center;html=1;fontSize=12;fontStyle=0;aspect=fixed;pointerEvents=1;shape=mxgraph.aws4.elastic_network_interface;" parent="cEWxc5GHdfLxTCo6FRgi-3" vertex="1">
          <mxGeometry x="20" y="123" width="64" height="64" as="geometry" />
        </mxCell>
        <mxCell id="cEWxc5GHdfLxTCo6FRgi-253" value="" style="shape=table;startSize=0;container=1;collapsible=0;childLayout=tableLayout;" parent="cEWxc5GHdfLxTCo6FRgi-3" vertex="1">
          <mxGeometry x="100" y="320" width="190" height="90" as="geometry" />
        </mxCell>
        <mxCell id="cEWxc5GHdfLxTCo6FRgi-254" value="" style="shape=tableRow;horizontal=0;startSize=0;swimlaneHead=0;swimlaneBody=0;strokeColor=inherit;top=0;left=0;bottom=0;right=0;collapsible=0;dropTarget=0;fillColor=none;points=[[0,0.5],[1,0.5]];portConstraint=eastwest;" parent="cEWxc5GHdfLxTCo6FRgi-253" vertex="1">
          <mxGeometry width="190" height="30" as="geometry" />
        </mxCell>
        <mxCell id="cEWxc5GHdfLxTCo6FRgi-255" value="10.63.0.1" style="shape=partialRectangle;html=1;whiteSpace=wrap;connectable=0;strokeColor=inherit;overflow=hidden;fillColor=none;top=0;left=0;bottom=0;right=0;pointerEvents=1;" parent="cEWxc5GHdfLxTCo6FRgi-254" vertex="1">
          <mxGeometry width="78" height="30" as="geometry">
            <mxRectangle width="78" height="30" as="alternateBounds" />
          </mxGeometry>
        </mxCell>
        <mxCell id="cEWxc5GHdfLxTCo6FRgi-256" value="Subnet Router" style="shape=partialRectangle;html=1;whiteSpace=wrap;connectable=0;strokeColor=inherit;overflow=hidden;fillColor=none;top=0;left=0;bottom=0;right=0;pointerEvents=1;" parent="cEWxc5GHdfLxTCo6FRgi-254" vertex="1">
          <mxGeometry x="78" width="112" height="30" as="geometry">
            <mxRectangle width="112" height="30" as="alternateBounds" />
          </mxGeometry>
        </mxCell>
        <mxCell id="cEWxc5GHdfLxTCo6FRgi-257" value="" style="shape=tableRow;horizontal=0;startSize=0;swimlaneHead=0;swimlaneBody=0;strokeColor=inherit;top=0;left=0;bottom=0;right=0;collapsible=0;dropTarget=0;fillColor=none;points=[[0,0.5],[1,0.5]];portConstraint=eastwest;" parent="cEWxc5GHdfLxTCo6FRgi-253" vertex="1">
          <mxGeometry y="30" width="190" height="30" as="geometry" />
        </mxCell>
        <mxCell id="cEWxc5GHdfLxTCo6FRgi-258" value="10.63.0.2" style="shape=partialRectangle;html=1;whiteSpace=wrap;connectable=0;strokeColor=inherit;overflow=hidden;fillColor=none;top=0;left=0;bottom=0;right=0;pointerEvents=1;" parent="cEWxc5GHdfLxTCo6FRgi-257" vertex="1">
          <mxGeometry width="78" height="30" as="geometry">
            <mxRectangle width="78" height="30" as="alternateBounds" />
          </mxGeometry>
        </mxCell>
        <mxCell id="cEWxc5GHdfLxTCo6FRgi-259" value="Subnet Resolver" style="shape=partialRectangle;html=1;whiteSpace=wrap;connectable=0;strokeColor=inherit;overflow=hidden;fillColor=none;top=0;left=0;bottom=0;right=0;pointerEvents=1;" parent="cEWxc5GHdfLxTCo6FRgi-257" vertex="1">
          <mxGeometry x="78" width="112" height="30" as="geometry">
            <mxRectangle width="112" height="30" as="alternateBounds" />
          </mxGeometry>
        </mxCell>
        <mxCell id="cEWxc5GHdfLxTCo6FRgi-260" value="" style="shape=tableRow;horizontal=0;startSize=0;swimlaneHead=0;swimlaneBody=0;strokeColor=inherit;top=0;left=0;bottom=0;right=0;collapsible=0;dropTarget=0;fillColor=none;points=[[0,0.5],[1,0.5]];portConstraint=eastwest;" parent="cEWxc5GHdfLxTCo6FRgi-253" vertex="1">
          <mxGeometry y="60" width="190" height="30" as="geometry" />
        </mxCell>
        <mxCell id="cEWxc5GHdfLxTCo6FRgi-261" value="10.63.0.4-14" style="shape=partialRectangle;html=1;whiteSpace=wrap;connectable=0;strokeColor=inherit;overflow=hidden;fillColor=none;top=0;left=0;bottom=0;right=0;pointerEvents=1;" parent="cEWxc5GHdfLxTCo6FRgi-260" vertex="1">
          <mxGeometry width="78" height="30" as="geometry">
            <mxRectangle width="78" height="30" as="alternateBounds" />
          </mxGeometry>
        </mxCell>
        <mxCell id="cEWxc5GHdfLxTCo6FRgi-262" value="TGW eni" style="shape=partialRectangle;html=1;whiteSpace=wrap;connectable=0;strokeColor=inherit;overflow=hidden;fillColor=none;top=0;left=0;bottom=0;right=0;pointerEvents=1;" parent="cEWxc5GHdfLxTCo6FRgi-260" vertex="1">
          <mxGeometry x="78" width="112" height="30" as="geometry">
            <mxRectangle width="112" height="30" as="alternateBounds" />
          </mxGeometry>
        </mxCell>
        <mxCell id="cEWxc5GHdfLxTCo6FRgi-243" value="Firewall OnPrem azA Net&amp;nbsp;10.63.0.32/28" style="swimlane;whiteSpace=wrap;html=1;startSize=30;fillColor=#f8cecc;strokeColor=#b85450;" parent="cEWxc5GHdfLxTCo6FRgi-1" vertex="1">
          <mxGeometry x="1080" y="140" width="260" height="380" as="geometry" />
        </mxCell>
        <mxCell id="cEWxc5GHdfLxTCo6FRgi-411" value="" style="shape=table;startSize=0;container=1;collapsible=0;childLayout=tableLayout;" parent="cEWxc5GHdfLxTCo6FRgi-243" vertex="1">
          <mxGeometry x="20" y="50" width="220" height="30" as="geometry" />
        </mxCell>
        <mxCell id="cEWxc5GHdfLxTCo6FRgi-412" value="" style="shape=tableRow;horizontal=0;startSize=0;swimlaneHead=0;swimlaneBody=0;strokeColor=inherit;top=0;left=0;bottom=0;right=0;collapsible=0;dropTarget=0;fillColor=none;points=[[0,0.5],[1,0.5]];portConstraint=eastwest;" parent="cEWxc5GHdfLxTCo6FRgi-411" vertex="1">
          <mxGeometry width="220" height="30" as="geometry" />
        </mxCell>
        <mxCell id="cEWxc5GHdfLxTCo6FRgi-413" value="10.63.0.32/28" style="shape=partialRectangle;html=1;whiteSpace=wrap;connectable=0;strokeColor=inherit;overflow=hidden;fillColor=none;top=0;left=0;bottom=0;right=0;pointerEvents=1;" parent="cEWxc5GHdfLxTCo6FRgi-412" vertex="1">
          <mxGeometry width="110" height="30" as="geometry">
            <mxRectangle width="110" height="30" as="alternateBounds" />
          </mxGeometry>
        </mxCell>
        <mxCell id="cEWxc5GHdfLxTCo6FRgi-414" value="Local" style="shape=partialRectangle;html=1;whiteSpace=wrap;connectable=0;strokeColor=inherit;overflow=hidden;fillColor=none;top=0;left=0;bottom=0;right=0;pointerEvents=1;" parent="cEWxc5GHdfLxTCo6FRgi-412" vertex="1">
          <mxGeometry x="110" width="110" height="30" as="geometry">
            <mxRectangle width="110" height="30" as="alternateBounds" />
          </mxGeometry>
        </mxCell>
        <mxCell id="cEWxc5GHdfLxTCo6FRgi-415" value="" style="shape=table;startSize=0;container=1;collapsible=0;childLayout=tableLayout;" parent="cEWxc5GHdfLxTCo6FRgi-243" vertex="1">
          <mxGeometry x="20" y="125" width="220" height="110" as="geometry" />
        </mxCell>
        <mxCell id="cEWxc5GHdfLxTCo6FRgi-416" value="" style="shape=tableRow;horizontal=0;startSize=0;swimlaneHead=0;swimlaneBody=0;strokeColor=inherit;top=0;left=0;bottom=0;right=0;collapsible=0;dropTarget=0;fillColor=none;points=[[0,0.5],[1,0.5]];portConstraint=eastwest;" parent="cEWxc5GHdfLxTCo6FRgi-415" vertex="1">
          <mxGeometry width="220" height="28" as="geometry" />
        </mxCell>
        <mxCell id="cEWxc5GHdfLxTCo6FRgi-417" value="10.63.0.32" style="shape=partialRectangle;html=1;whiteSpace=wrap;connectable=0;strokeColor=inherit;overflow=hidden;fillColor=none;top=0;left=0;bottom=0;right=0;pointerEvents=1;" parent="cEWxc5GHdfLxTCo6FRgi-416" vertex="1">
          <mxGeometry width="110" height="28" as="geometry">
            <mxRectangle width="110" height="28" as="alternateBounds" />
          </mxGeometry>
        </mxCell>
        <mxCell id="cEWxc5GHdfLxTCo6FRgi-418" value="Router" style="shape=partialRectangle;html=1;whiteSpace=wrap;connectable=0;strokeColor=inherit;overflow=hidden;fillColor=none;top=0;left=0;bottom=0;right=0;pointerEvents=1;" parent="cEWxc5GHdfLxTCo6FRgi-416" vertex="1">
          <mxGeometry x="110" width="110" height="28" as="geometry">
            <mxRectangle width="110" height="28" as="alternateBounds" />
          </mxGeometry>
        </mxCell>
        <mxCell id="cEWxc5GHdfLxTCo6FRgi-419" value="" style="shape=tableRow;horizontal=0;startSize=0;swimlaneHead=0;swimlaneBody=0;strokeColor=inherit;top=0;left=0;bottom=0;right=0;collapsible=0;dropTarget=0;fillColor=none;points=[[0,0.5],[1,0.5]];portConstraint=eastwest;" parent="cEWxc5GHdfLxTCo6FRgi-415" vertex="1">
          <mxGeometry y="28" width="220" height="27" as="geometry" />
        </mxCell>
        <mxCell id="cEWxc5GHdfLxTCo6FRgi-420" value="10.63.16.33" style="shape=partialRectangle;html=1;whiteSpace=wrap;connectable=0;strokeColor=inherit;overflow=hidden;fillColor=none;top=0;left=0;bottom=0;right=0;pointerEvents=1;" parent="cEWxc5GHdfLxTCo6FRgi-419" vertex="1">
          <mxGeometry width="110" height="27" as="geometry">
            <mxRectangle width="110" height="27" as="alternateBounds" />
          </mxGeometry>
        </mxCell>
        <mxCell id="cEWxc5GHdfLxTCo6FRgi-421" value="DNS" style="shape=partialRectangle;html=1;whiteSpace=wrap;connectable=0;strokeColor=inherit;overflow=hidden;fillColor=none;top=0;left=0;bottom=0;right=0;pointerEvents=1;" parent="cEWxc5GHdfLxTCo6FRgi-419" vertex="1">
          <mxGeometry x="110" width="110" height="27" as="geometry">
            <mxRectangle width="110" height="27" as="alternateBounds" />
          </mxGeometry>
        </mxCell>
        <mxCell id="cEWxc5GHdfLxTCo6FRgi-422" value="" style="shape=tableRow;horizontal=0;startSize=0;swimlaneHead=0;swimlaneBody=0;strokeColor=inherit;top=0;left=0;bottom=0;right=0;collapsible=0;dropTarget=0;fillColor=none;points=[[0,0.5],[1,0.5]];portConstraint=eastwest;" parent="cEWxc5GHdfLxTCo6FRgi-415" vertex="1">
          <mxGeometry y="55" width="220" height="28" as="geometry" />
        </mxCell>
        <mxCell id="cEWxc5GHdfLxTCo6FRgi-423" value="10.63.0.35-63" style="shape=partialRectangle;html=1;whiteSpace=wrap;connectable=0;strokeColor=inherit;overflow=hidden;fillColor=none;top=0;left=0;bottom=0;right=0;pointerEvents=1;" parent="cEWxc5GHdfLxTCo6FRgi-422" vertex="1">
          <mxGeometry width="110" height="28" as="geometry">
            <mxRectangle width="110" height="28" as="alternateBounds" />
          </mxGeometry>
        </mxCell>
        <mxCell id="cEWxc5GHdfLxTCo6FRgi-424" value="GWLB azA ENI" style="shape=partialRectangle;html=1;whiteSpace=wrap;connectable=0;strokeColor=inherit;overflow=hidden;fillColor=none;top=0;left=0;bottom=0;right=0;pointerEvents=1;" parent="cEWxc5GHdfLxTCo6FRgi-422" vertex="1">
          <mxGeometry x="110" width="110" height="28" as="geometry">
            <mxRectangle width="110" height="28" as="alternateBounds" />
          </mxGeometry>
        </mxCell>
        <mxCell id="cEWxc5GHdfLxTCo6FRgi-425" value="" style="shape=tableRow;horizontal=0;startSize=0;swimlaneHead=0;swimlaneBody=0;strokeColor=inherit;top=0;left=0;bottom=0;right=0;collapsible=0;dropTarget=0;fillColor=none;points=[[0,0.5],[1,0.5]];portConstraint=eastwest;" parent="cEWxc5GHdfLxTCo6FRgi-415" vertex="1">
          <mxGeometry y="83" width="220" height="27" as="geometry" />
        </mxCell>
        <mxCell id="cEWxc5GHdfLxTCo6FRgi-426" value="" style="shape=partialRectangle;html=1;whiteSpace=wrap;connectable=0;strokeColor=inherit;overflow=hidden;fillColor=none;top=0;left=0;bottom=0;right=0;pointerEvents=1;" parent="cEWxc5GHdfLxTCo6FRgi-425" vertex="1">
          <mxGeometry width="110" height="27" as="geometry">
            <mxRectangle width="110" height="27" as="alternateBounds" />
          </mxGeometry>
        </mxCell>
        <mxCell id="cEWxc5GHdfLxTCo6FRgi-427" value="" style="shape=partialRectangle;html=1;whiteSpace=wrap;connectable=0;strokeColor=inherit;overflow=hidden;fillColor=none;top=0;left=0;bottom=0;right=0;pointerEvents=1;" parent="cEWxc5GHdfLxTCo6FRgi-425" vertex="1">
          <mxGeometry x="110" width="110" height="27" as="geometry">
            <mxRectangle width="110" height="27" as="alternateBounds" />
          </mxGeometry>
        </mxCell>
        <mxCell id="cEWxc5GHdfLxTCo6FRgi-245" value="Firewall MGMT azA Net 10.63.0.48/28" style="swimlane;whiteSpace=wrap;html=1;startSize=30;fillColor=#f8cecc;strokeColor=#b85450;" parent="cEWxc5GHdfLxTCo6FRgi-1" vertex="1">
          <mxGeometry x="1350" y="330" width="260" height="110" as="geometry" />
        </mxCell>
        <mxCell id="cEWxc5GHdfLxTCo6FRgi-246" value="Firewall Proxy Net 100.96.193.64/27" style="swimlane;whiteSpace=wrap;html=1;startSize=30;fillColor=#f8cecc;strokeColor=#b85450;" parent="cEWxc5GHdfLxTCo6FRgi-1" vertex="1">
          <mxGeometry x="1640" y="330" width="360" height="110" as="geometry" />
        </mxCell>
        <mxCell id="cEWxc5GHdfLxTCo6FRgi-337" value="TGW-Attach Subnet azB 10.63.0.128/28" style="swimlane;whiteSpace=wrap;html=1;startSize=30;fillColor=#dae8fc;strokeColor=#6c8ebf;movable=1;resizable=1;rotatable=1;deletable=1;editable=1;locked=0;connectable=1;" parent="cEWxc5GHdfLxTCo6FRgi-1" vertex="1">
          <mxGeometry x="30" y="570" width="360" height="420" as="geometry" />
        </mxCell>
        <mxCell id="cEWxc5GHdfLxTCo6FRgi-338" value="" style="shape=table;startSize=0;container=1;collapsible=0;childLayout=tableLayout;" parent="cEWxc5GHdfLxTCo6FRgi-337" vertex="1">
          <mxGeometry x="100" y="50" width="250" height="240" as="geometry" />
        </mxCell>
        <mxCell id="cEWxc5GHdfLxTCo6FRgi-339" value="" style="shape=tableRow;horizontal=0;startSize=0;swimlaneHead=0;swimlaneBody=0;strokeColor=inherit;top=0;left=0;bottom=0;right=0;collapsible=0;dropTarget=0;fillColor=none;points=[[0,0.5],[1,0.5]];portConstraint=eastwest;" parent="cEWxc5GHdfLxTCo6FRgi-338" vertex="1">
          <mxGeometry width="250" height="40" as="geometry" />
        </mxCell>
        <mxCell id="cEWxc5GHdfLxTCo6FRgi-340" value="100.96.192.0/23" style="shape=partialRectangle;html=1;whiteSpace=wrap;connectable=0;strokeColor=inherit;overflow=hidden;fillColor=none;top=0;left=0;bottom=0;right=0;pointerEvents=1;" parent="cEWxc5GHdfLxTCo6FRgi-339" vertex="1">
          <mxGeometry width="110" height="40" as="geometry">
            <mxRectangle width="110" height="40" as="alternateBounds" />
          </mxGeometry>
        </mxCell>
        <mxCell id="cEWxc5GHdfLxTCo6FRgi-341" value="Local" style="shape=partialRectangle;html=1;whiteSpace=wrap;connectable=0;strokeColor=inherit;overflow=hidden;fillColor=none;top=0;left=0;bottom=0;right=0;pointerEvents=1;" parent="cEWxc5GHdfLxTCo6FRgi-339" vertex="1">
          <mxGeometry x="110" width="140" height="40" as="geometry">
            <mxRectangle width="140" height="40" as="alternateBounds" />
          </mxGeometry>
        </mxCell>
        <mxCell id="cEWxc5GHdfLxTCo6FRgi-342" value="" style="shape=tableRow;horizontal=0;startSize=0;swimlaneHead=0;swimlaneBody=0;strokeColor=inherit;top=0;left=0;bottom=0;right=0;collapsible=0;dropTarget=0;fillColor=none;points=[[0,0.5],[1,0.5]];portConstraint=eastwest;" parent="cEWxc5GHdfLxTCo6FRgi-338" vertex="1">
          <mxGeometry y="40" width="250" height="40" as="geometry" />
        </mxCell>
        <mxCell id="cEWxc5GHdfLxTCo6FRgi-343" value="10.63.0.160" style="shape=partialRectangle;html=1;whiteSpace=wrap;connectable=0;strokeColor=inherit;overflow=hidden;fillColor=none;top=0;left=0;bottom=0;right=0;pointerEvents=1;" parent="cEWxc5GHdfLxTCo6FRgi-342" vertex="1">
          <mxGeometry width="110" height="40" as="geometry">
            <mxRectangle width="110" height="40" as="alternateBounds" />
          </mxGeometry>
        </mxCell>
        <mxCell id="cEWxc5GHdfLxTCo6FRgi-344" value="local" style="shape=partialRectangle;html=1;whiteSpace=wrap;connectable=0;strokeColor=inherit;overflow=hidden;fillColor=none;top=0;left=0;bottom=0;right=0;pointerEvents=1;" parent="cEWxc5GHdfLxTCo6FRgi-342" vertex="1">
          <mxGeometry x="110" width="140" height="40" as="geometry">
            <mxRectangle width="140" height="40" as="alternateBounds" />
          </mxGeometry>
        </mxCell>
        <mxCell id="cEWxc5GHdfLxTCo6FRgi-345" value="" style="shape=tableRow;horizontal=0;startSize=0;swimlaneHead=0;swimlaneBody=0;strokeColor=inherit;top=0;left=0;bottom=0;right=0;collapsible=0;dropTarget=0;fillColor=none;points=[[0,0.5],[1,0.5]];portConstraint=eastwest;" parent="cEWxc5GHdfLxTCo6FRgi-338" vertex="1">
          <mxGeometry y="80" width="250" height="40" as="geometry" />
        </mxCell>
        <mxCell id="cEWxc5GHdfLxTCo6FRgi-346" value="142.53.0.0/16" style="shape=partialRectangle;html=1;whiteSpace=wrap;connectable=0;strokeColor=inherit;overflow=hidden;fillColor=none;top=0;left=0;bottom=0;right=0;pointerEvents=1;" parent="cEWxc5GHdfLxTCo6FRgi-345" vertex="1">
          <mxGeometry width="110" height="40" as="geometry">
            <mxRectangle width="110" height="40" as="alternateBounds" />
          </mxGeometry>
        </mxCell>
        <mxCell id="cEWxc5GHdfLxTCo6FRgi-347" value="" style="shape=partialRectangle;html=1;whiteSpace=wrap;connectable=0;strokeColor=inherit;overflow=hidden;fillColor=none;top=0;left=0;bottom=0;right=0;pointerEvents=1;" parent="cEWxc5GHdfLxTCo6FRgi-345" vertex="1">
          <mxGeometry x="110" width="140" height="40" as="geometry">
            <mxRectangle width="140" height="40" as="alternateBounds" />
          </mxGeometry>
        </mxCell>
        <mxCell id="cEWxc5GHdfLxTCo6FRgi-348" value="" style="shape=tableRow;horizontal=0;startSize=0;swimlaneHead=0;swimlaneBody=0;strokeColor=inherit;top=0;left=0;bottom=0;right=0;collapsible=0;dropTarget=0;fillColor=none;points=[[0,0.5],[1,0.5]];portConstraint=eastwest;" parent="cEWxc5GHdfLxTCo6FRgi-338" vertex="1">
          <mxGeometry y="120" width="250" height="40" as="geometry" />
        </mxCell>
        <mxCell id="cEWxc5GHdfLxTCo6FRgi-349" value="161.187.0.0/16" style="shape=partialRectangle;html=1;whiteSpace=wrap;connectable=0;strokeColor=inherit;overflow=hidden;fillColor=none;top=0;left=0;bottom=0;right=0;pointerEvents=1;" parent="cEWxc5GHdfLxTCo6FRgi-348" vertex="1">
          <mxGeometry width="110" height="40" as="geometry">
            <mxRectangle width="110" height="40" as="alternateBounds" />
          </mxGeometry>
        </mxCell>
        <mxCell id="cEWxc5GHdfLxTCo6FRgi-350" value="" style="shape=partialRectangle;html=1;whiteSpace=wrap;connectable=0;strokeColor=inherit;overflow=hidden;fillColor=none;top=0;left=0;bottom=0;right=0;pointerEvents=1;" parent="cEWxc5GHdfLxTCo6FRgi-348" vertex="1">
          <mxGeometry x="110" width="140" height="40" as="geometry">
            <mxRectangle width="140" height="40" as="alternateBounds" />
          </mxGeometry>
        </mxCell>
        <mxCell id="cEWxc5GHdfLxTCo6FRgi-351" value="" style="shape=tableRow;horizontal=0;startSize=0;swimlaneHead=0;swimlaneBody=0;strokeColor=inherit;top=0;left=0;bottom=0;right=0;collapsible=0;dropTarget=0;fillColor=none;points=[[0,0.5],[1,0.5]];portConstraint=eastwest;" parent="cEWxc5GHdfLxTCo6FRgi-338" vertex="1">
          <mxGeometry y="160" width="250" height="40" as="geometry" />
        </mxCell>
        <mxCell id="cEWxc5GHdfLxTCo6FRgi-352" value="192.168.127.0/17" style="shape=partialRectangle;html=1;whiteSpace=wrap;connectable=0;strokeColor=inherit;overflow=hidden;fillColor=none;top=0;left=0;bottom=0;right=0;pointerEvents=1;" parent="cEWxc5GHdfLxTCo6FRgi-351" vertex="1">
          <mxGeometry width="110" height="40" as="geometry">
            <mxRectangle width="110" height="40" as="alternateBounds" />
          </mxGeometry>
        </mxCell>
        <mxCell id="cEWxc5GHdfLxTCo6FRgi-353" value="" style="shape=partialRectangle;html=1;whiteSpace=wrap;connectable=0;strokeColor=inherit;overflow=hidden;fillColor=none;top=0;left=0;bottom=0;right=0;pointerEvents=1;" parent="cEWxc5GHdfLxTCo6FRgi-351" vertex="1">
          <mxGeometry x="110" width="140" height="40" as="geometry">
            <mxRectangle width="140" height="40" as="alternateBounds" />
          </mxGeometry>
        </mxCell>
        <mxCell id="cEWxc5GHdfLxTCo6FRgi-354" value="" style="shape=tableRow;horizontal=0;startSize=0;swimlaneHead=0;swimlaneBody=0;strokeColor=inherit;top=0;left=0;bottom=0;right=0;collapsible=0;dropTarget=0;fillColor=none;points=[[0,0.5],[1,0.5]];portConstraint=eastwest;" parent="cEWxc5GHdfLxTCo6FRgi-338" vertex="1">
          <mxGeometry y="200" width="250" height="40" as="geometry" />
        </mxCell>
        <mxCell id="cEWxc5GHdfLxTCo6FRgi-355" value="0.0.0.0/0" style="shape=partialRectangle;html=1;whiteSpace=wrap;connectable=0;strokeColor=inherit;overflow=hidden;fillColor=none;top=0;left=0;bottom=0;right=0;pointerEvents=1;" parent="cEWxc5GHdfLxTCo6FRgi-354" vertex="1">
          <mxGeometry width="110" height="40" as="geometry">
            <mxRectangle width="110" height="40" as="alternateBounds" />
          </mxGeometry>
        </mxCell>
        <mxCell id="cEWxc5GHdfLxTCo6FRgi-356" value="GWLBe endpoint" style="shape=partialRectangle;html=1;whiteSpace=wrap;connectable=0;strokeColor=inherit;overflow=hidden;fillColor=none;top=0;left=0;bottom=0;right=0;pointerEvents=1;" parent="cEWxc5GHdfLxTCo6FRgi-354" vertex="1">
          <mxGeometry x="110" width="140" height="40" as="geometry">
            <mxRectangle width="140" height="40" as="alternateBounds" />
          </mxGeometry>
        </mxCell>
        <mxCell id="cEWxc5GHdfLxTCo6FRgi-357" value="ENI for TGW &lt;br&gt;Attachment" style="sketch=0;outlineConnect=0;fontColor=#232F3E;gradientColor=none;fillColor=#4D27AA;strokeColor=none;dashed=0;verticalLabelPosition=bottom;verticalAlign=top;align=center;html=1;fontSize=12;fontStyle=0;aspect=fixed;pointerEvents=1;shape=mxgraph.aws4.elastic_network_interface;" parent="cEWxc5GHdfLxTCo6FRgi-337" vertex="1">
          <mxGeometry x="20" y="123" width="64" height="64" as="geometry" />
        </mxCell>
        <mxCell id="cEWxc5GHdfLxTCo6FRgi-358" value="" style="shape=table;startSize=0;container=1;collapsible=0;childLayout=tableLayout;" parent="cEWxc5GHdfLxTCo6FRgi-337" vertex="1">
          <mxGeometry x="100" y="320" width="190" height="90" as="geometry" />
        </mxCell>
        <mxCell id="cEWxc5GHdfLxTCo6FRgi-359" value="" style="shape=tableRow;horizontal=0;startSize=0;swimlaneHead=0;swimlaneBody=0;strokeColor=inherit;top=0;left=0;bottom=0;right=0;collapsible=0;dropTarget=0;fillColor=none;points=[[0,0.5],[1,0.5]];portConstraint=eastwest;" parent="cEWxc5GHdfLxTCo6FRgi-358" vertex="1">
          <mxGeometry width="190" height="30" as="geometry" />
        </mxCell>
        <mxCell id="cEWxc5GHdfLxTCo6FRgi-360" value="10.63.0.1" style="shape=partialRectangle;html=1;whiteSpace=wrap;connectable=0;strokeColor=inherit;overflow=hidden;fillColor=none;top=0;left=0;bottom=0;right=0;pointerEvents=1;" parent="cEWxc5GHdfLxTCo6FRgi-359" vertex="1">
          <mxGeometry width="78" height="30" as="geometry">
            <mxRectangle width="78" height="30" as="alternateBounds" />
          </mxGeometry>
        </mxCell>
        <mxCell id="cEWxc5GHdfLxTCo6FRgi-361" value="Subnet Router" style="shape=partialRectangle;html=1;whiteSpace=wrap;connectable=0;strokeColor=inherit;overflow=hidden;fillColor=none;top=0;left=0;bottom=0;right=0;pointerEvents=1;" parent="cEWxc5GHdfLxTCo6FRgi-359" vertex="1">
          <mxGeometry x="78" width="112" height="30" as="geometry">
            <mxRectangle width="112" height="30" as="alternateBounds" />
          </mxGeometry>
        </mxCell>
        <mxCell id="cEWxc5GHdfLxTCo6FRgi-362" value="" style="shape=tableRow;horizontal=0;startSize=0;swimlaneHead=0;swimlaneBody=0;strokeColor=inherit;top=0;left=0;bottom=0;right=0;collapsible=0;dropTarget=0;fillColor=none;points=[[0,0.5],[1,0.5]];portConstraint=eastwest;" parent="cEWxc5GHdfLxTCo6FRgi-358" vertex="1">
          <mxGeometry y="30" width="190" height="30" as="geometry" />
        </mxCell>
        <mxCell id="cEWxc5GHdfLxTCo6FRgi-363" value="10.63.0.2" style="shape=partialRectangle;html=1;whiteSpace=wrap;connectable=0;strokeColor=inherit;overflow=hidden;fillColor=none;top=0;left=0;bottom=0;right=0;pointerEvents=1;" parent="cEWxc5GHdfLxTCo6FRgi-362" vertex="1">
          <mxGeometry width="78" height="30" as="geometry">
            <mxRectangle width="78" height="30" as="alternateBounds" />
          </mxGeometry>
        </mxCell>
        <mxCell id="cEWxc5GHdfLxTCo6FRgi-364" value="Subnet Resolver" style="shape=partialRectangle;html=1;whiteSpace=wrap;connectable=0;strokeColor=inherit;overflow=hidden;fillColor=none;top=0;left=0;bottom=0;right=0;pointerEvents=1;" parent="cEWxc5GHdfLxTCo6FRgi-362" vertex="1">
          <mxGeometry x="78" width="112" height="30" as="geometry">
            <mxRectangle width="112" height="30" as="alternateBounds" />
          </mxGeometry>
        </mxCell>
        <mxCell id="cEWxc5GHdfLxTCo6FRgi-365" value="" style="shape=tableRow;horizontal=0;startSize=0;swimlaneHead=0;swimlaneBody=0;strokeColor=inherit;top=0;left=0;bottom=0;right=0;collapsible=0;dropTarget=0;fillColor=none;points=[[0,0.5],[1,0.5]];portConstraint=eastwest;" parent="cEWxc5GHdfLxTCo6FRgi-358" vertex="1">
          <mxGeometry y="60" width="190" height="30" as="geometry" />
        </mxCell>
        <mxCell id="cEWxc5GHdfLxTCo6FRgi-366" value="10.63.0.4-14" style="shape=partialRectangle;html=1;whiteSpace=wrap;connectable=0;strokeColor=inherit;overflow=hidden;fillColor=none;top=0;left=0;bottom=0;right=0;pointerEvents=1;" parent="cEWxc5GHdfLxTCo6FRgi-365" vertex="1">
          <mxGeometry width="78" height="30" as="geometry">
            <mxRectangle width="78" height="30" as="alternateBounds" />
          </mxGeometry>
        </mxCell>
        <mxCell id="cEWxc5GHdfLxTCo6FRgi-367" value="TGW eni" style="shape=partialRectangle;html=1;whiteSpace=wrap;connectable=0;strokeColor=inherit;overflow=hidden;fillColor=none;top=0;left=0;bottom=0;right=0;pointerEvents=1;" parent="cEWxc5GHdfLxTCo6FRgi-365" vertex="1">
          <mxGeometry x="78" width="112" height="30" as="geometry">
            <mxRectangle width="112" height="30" as="alternateBounds" />
          </mxGeometry>
        </mxCell>
        <mxCell id="cEWxc5GHdfLxTCo6FRgi-447" value="" style="group" parent="cEWxc5GHdfLxTCo6FRgi-1" vertex="1" connectable="0">
          <mxGeometry x="1080" y="550" width="260" height="450" as="geometry" />
        </mxCell>
        <mxCell id="cEWxc5GHdfLxTCo6FRgi-446" value="" style="group;fontStyle=1" parent="cEWxc5GHdfLxTCo6FRgi-447" vertex="1" connectable="0">
          <mxGeometry width="260" height="450" as="geometry" />
        </mxCell>
        <mxCell id="cEWxc5GHdfLxTCo6FRgi-443" value="" style="rounded=0;whiteSpace=wrap;html=1;strokeColor=#EA6B66;" parent="cEWxc5GHdfLxTCo6FRgi-446" vertex="1">
          <mxGeometry width="260" height="420" as="geometry" />
        </mxCell>
        <mxCell id="cEWxc5GHdfLxTCo6FRgi-444" value="Firewall OnPrem azB Net&amp;nbsp;10.53.0.160/28" style="rounded=0;whiteSpace=wrap;html=1;fillColor=#f8cecc;strokeColor=#b85450;fontStyle=1" parent="cEWxc5GHdfLxTCo6FRgi-446" vertex="1">
          <mxGeometry y="420" width="260" height="30" as="geometry" />
        </mxCell>
        <mxCell id="cEWxc5GHdfLxTCo6FRgi-397" value="" style="shape=table;startSize=0;container=1;collapsible=0;childLayout=tableLayout;" parent="cEWxc5GHdfLxTCo6FRgi-447" vertex="1">
          <mxGeometry x="20" y="250" width="220" height="140" as="geometry" />
        </mxCell>
        <mxCell id="cEWxc5GHdfLxTCo6FRgi-398" value="" style="shape=tableRow;horizontal=0;startSize=0;swimlaneHead=0;swimlaneBody=0;strokeColor=inherit;top=0;left=0;bottom=0;right=0;collapsible=0;dropTarget=0;fillColor=none;points=[[0,0.5],[1,0.5]];portConstraint=eastwest;" parent="cEWxc5GHdfLxTCo6FRgi-397" vertex="1">
          <mxGeometry width="220" height="35" as="geometry" />
        </mxCell>
        <mxCell id="cEWxc5GHdfLxTCo6FRgi-399" value="10.63.0.160" style="shape=partialRectangle;html=1;whiteSpace=wrap;connectable=0;strokeColor=inherit;overflow=hidden;fillColor=none;top=0;left=0;bottom=0;right=0;pointerEvents=1;" parent="cEWxc5GHdfLxTCo6FRgi-398" vertex="1">
          <mxGeometry width="100" height="35" as="geometry">
            <mxRectangle width="100" height="35" as="alternateBounds" />
          </mxGeometry>
        </mxCell>
        <mxCell id="cEWxc5GHdfLxTCo6FRgi-400" value="Router" style="shape=partialRectangle;html=1;whiteSpace=wrap;connectable=0;strokeColor=inherit;overflow=hidden;fillColor=none;top=0;left=0;bottom=0;right=0;pointerEvents=1;" parent="cEWxc5GHdfLxTCo6FRgi-398" vertex="1">
          <mxGeometry x="100" width="120" height="35" as="geometry">
            <mxRectangle width="120" height="35" as="alternateBounds" />
          </mxGeometry>
        </mxCell>
        <mxCell id="cEWxc5GHdfLxTCo6FRgi-401" value="" style="shape=tableRow;horizontal=0;startSize=0;swimlaneHead=0;swimlaneBody=0;strokeColor=inherit;top=0;left=0;bottom=0;right=0;collapsible=0;dropTarget=0;fillColor=none;points=[[0,0.5],[1,0.5]];portConstraint=eastwest;" parent="cEWxc5GHdfLxTCo6FRgi-397" vertex="1">
          <mxGeometry y="35" width="220" height="35" as="geometry" />
        </mxCell>
        <mxCell id="cEWxc5GHdfLxTCo6FRgi-402" value="10.63.0.161" style="shape=partialRectangle;html=1;whiteSpace=wrap;connectable=0;strokeColor=inherit;overflow=hidden;fillColor=none;top=0;left=0;bottom=0;right=0;pointerEvents=1;" parent="cEWxc5GHdfLxTCo6FRgi-401" vertex="1">
          <mxGeometry width="100" height="35" as="geometry">
            <mxRectangle width="100" height="35" as="alternateBounds" />
          </mxGeometry>
        </mxCell>
        <mxCell id="cEWxc5GHdfLxTCo6FRgi-403" value="DNS" style="shape=partialRectangle;html=1;whiteSpace=wrap;connectable=0;strokeColor=inherit;overflow=hidden;fillColor=none;top=0;left=0;bottom=0;right=0;pointerEvents=1;" parent="cEWxc5GHdfLxTCo6FRgi-401" vertex="1">
          <mxGeometry x="100" width="120" height="35" as="geometry">
            <mxRectangle width="120" height="35" as="alternateBounds" />
          </mxGeometry>
        </mxCell>
        <mxCell id="cEWxc5GHdfLxTCo6FRgi-404" value="" style="shape=tableRow;horizontal=0;startSize=0;swimlaneHead=0;swimlaneBody=0;strokeColor=inherit;top=0;left=0;bottom=0;right=0;collapsible=0;dropTarget=0;fillColor=none;points=[[0,0.5],[1,0.5]];portConstraint=eastwest;" parent="cEWxc5GHdfLxTCo6FRgi-397" vertex="1">
          <mxGeometry y="70" width="220" height="35" as="geometry" />
        </mxCell>
        <mxCell id="cEWxc5GHdfLxTCo6FRgi-405" value="10.63.163-175" style="shape=partialRectangle;html=1;whiteSpace=wrap;connectable=0;strokeColor=inherit;overflow=hidden;fillColor=none;top=0;left=0;bottom=0;right=0;pointerEvents=1;" parent="cEWxc5GHdfLxTCo6FRgi-404" vertex="1">
          <mxGeometry width="100" height="35" as="geometry">
            <mxRectangle width="100" height="35" as="alternateBounds" />
          </mxGeometry>
        </mxCell>
        <mxCell id="cEWxc5GHdfLxTCo6FRgi-406" value="GWLB azB ENI" style="shape=partialRectangle;html=1;whiteSpace=wrap;connectable=0;strokeColor=inherit;overflow=hidden;fillColor=none;top=0;left=0;bottom=0;right=0;pointerEvents=1;" parent="cEWxc5GHdfLxTCo6FRgi-404" vertex="1">
          <mxGeometry x="100" width="120" height="35" as="geometry">
            <mxRectangle width="120" height="35" as="alternateBounds" />
          </mxGeometry>
        </mxCell>
        <mxCell id="cEWxc5GHdfLxTCo6FRgi-407" value="" style="shape=tableRow;horizontal=0;startSize=0;swimlaneHead=0;swimlaneBody=0;strokeColor=inherit;top=0;left=0;bottom=0;right=0;collapsible=0;dropTarget=0;fillColor=none;points=[[0,0.5],[1,0.5]];portConstraint=eastwest;" parent="cEWxc5GHdfLxTCo6FRgi-397" vertex="1">
          <mxGeometry y="105" width="220" height="35" as="geometry" />
        </mxCell>
        <mxCell id="cEWxc5GHdfLxTCo6FRgi-408" value="" style="shape=partialRectangle;html=1;whiteSpace=wrap;connectable=0;strokeColor=inherit;overflow=hidden;fillColor=none;top=0;left=0;bottom=0;right=0;pointerEvents=1;" parent="cEWxc5GHdfLxTCo6FRgi-407" vertex="1">
          <mxGeometry width="100" height="35" as="geometry">
            <mxRectangle width="100" height="35" as="alternateBounds" />
          </mxGeometry>
        </mxCell>
        <mxCell id="cEWxc5GHdfLxTCo6FRgi-409" value="" style="shape=partialRectangle;html=1;whiteSpace=wrap;connectable=0;strokeColor=inherit;overflow=hidden;fillColor=none;top=0;left=0;bottom=0;right=0;pointerEvents=1;" parent="cEWxc5GHdfLxTCo6FRgi-407" vertex="1">
          <mxGeometry x="100" width="120" height="35" as="geometry">
            <mxRectangle width="120" height="35" as="alternateBounds" />
          </mxGeometry>
        </mxCell>
        <mxCell id="cEWxc5GHdfLxTCo6FRgi-435" value="" style="shape=table;startSize=0;container=1;collapsible=0;childLayout=tableLayout;" parent="cEWxc5GHdfLxTCo6FRgi-447" vertex="1">
          <mxGeometry x="20" y="60" width="220" height="50" as="geometry" />
        </mxCell>
        <mxCell id="cEWxc5GHdfLxTCo6FRgi-436" value="" style="shape=tableRow;horizontal=0;startSize=0;swimlaneHead=0;swimlaneBody=0;strokeColor=inherit;top=0;left=0;bottom=0;right=0;collapsible=0;dropTarget=0;fillColor=none;points=[[0,0.5],[1,0.5]];portConstraint=eastwest;" parent="cEWxc5GHdfLxTCo6FRgi-435" vertex="1">
          <mxGeometry width="220" height="25" as="geometry" />
        </mxCell>
        <mxCell id="cEWxc5GHdfLxTCo6FRgi-437" value="10.63.0.160/28" style="shape=partialRectangle;html=1;whiteSpace=wrap;connectable=0;strokeColor=inherit;overflow=hidden;fillColor=none;top=0;left=0;bottom=0;right=0;pointerEvents=1;" parent="cEWxc5GHdfLxTCo6FRgi-436" vertex="1">
          <mxGeometry width="110" height="25" as="geometry">
            <mxRectangle width="110" height="25" as="alternateBounds" />
          </mxGeometry>
        </mxCell>
        <mxCell id="cEWxc5GHdfLxTCo6FRgi-438" value="Local" style="shape=partialRectangle;html=1;whiteSpace=wrap;connectable=0;strokeColor=inherit;overflow=hidden;fillColor=none;top=0;left=0;bottom=0;right=0;pointerEvents=1;" parent="cEWxc5GHdfLxTCo6FRgi-436" vertex="1">
          <mxGeometry x="110" width="110" height="25" as="geometry">
            <mxRectangle width="110" height="25" as="alternateBounds" />
          </mxGeometry>
        </mxCell>
        <mxCell id="cEWxc5GHdfLxTCo6FRgi-439" value="" style="shape=tableRow;horizontal=0;startSize=0;swimlaneHead=0;swimlaneBody=0;strokeColor=inherit;top=0;left=0;bottom=0;right=0;collapsible=0;dropTarget=0;fillColor=none;points=[[0,0.5],[1,0.5]];portConstraint=eastwest;" parent="cEWxc5GHdfLxTCo6FRgi-435" vertex="1">
          <mxGeometry y="25" width="220" height="25" as="geometry" />
        </mxCell>
        <mxCell id="cEWxc5GHdfLxTCo6FRgi-440" value="" style="shape=partialRectangle;html=1;whiteSpace=wrap;connectable=0;strokeColor=inherit;overflow=hidden;fillColor=none;top=0;left=0;bottom=0;right=0;pointerEvents=1;" parent="cEWxc5GHdfLxTCo6FRgi-439" vertex="1">
          <mxGeometry width="110" height="25" as="geometry">
            <mxRectangle width="110" height="25" as="alternateBounds" />
          </mxGeometry>
        </mxCell>
        <mxCell id="cEWxc5GHdfLxTCo6FRgi-441" value="" style="shape=partialRectangle;html=1;whiteSpace=wrap;connectable=0;strokeColor=inherit;overflow=hidden;fillColor=none;top=0;left=0;bottom=0;right=0;pointerEvents=1;" parent="cEWxc5GHdfLxTCo6FRgi-439" vertex="1">
          <mxGeometry x="110" width="110" height="25" as="geometry">
            <mxRectangle width="110" height="25" as="alternateBounds" />
          </mxGeometry>
        </mxCell>
        <mxCell id="cEWxc5GHdfLxTCo6FRgi-451" value="Firewall MGMT azB Net 10.63.0.176/28" style="rounded=0;whiteSpace=wrap;html=1;fillColor=#f8cecc;strokeColor=#b85450;fontStyle=1" parent="cEWxc5GHdfLxTCo6FRgi-1" vertex="1">
          <mxGeometry x="1350" y="820" width="260" height="28" as="geometry" />
        </mxCell>
        <mxCell id="cEWxc5GHdfLxTCo6FRgi-473" value="" style="rounded=0;whiteSpace=wrap;html=1;" parent="cEWxc5GHdfLxTCo6FRgi-1" vertex="1">
          <mxGeometry x="1350" y="740" width="260" height="80" as="geometry" />
        </mxCell>
        <mxCell id="cEWxc5GHdfLxTCo6FRgi-474" value="Firewall Public azB Net 100.96.192.128/26" style="rounded=0;whiteSpace=wrap;html=1;fillColor=#f8cecc;strokeColor=#b85450;fontStyle=1" parent="cEWxc5GHdfLxTCo6FRgi-1" vertex="1">
          <mxGeometry x="810" y="820" width="260" height="28" as="geometry" />
        </mxCell>
        <mxCell id="cEWxc5GHdfLxTCo6FRgi-475" value="" style="rounded=0;whiteSpace=wrap;html=1;" parent="cEWxc5GHdfLxTCo6FRgi-1" vertex="1">
          <mxGeometry x="810" y="740" width="260" height="80" as="geometry" />
        </mxCell>
        <mxCell id="cEWxc5GHdfLxTCo6FRgi-336" value="Firewall&amp;nbsp; azB&lt;br&gt;&lt;br&gt;Firewall RT has entry for 10.63.0.160 -&amp;gt; GENEVE interface" style="shape=cube;whiteSpace=wrap;html=1;boundedLbl=1;backgroundOutline=1;darkOpacity=0.05;darkOpacity2=0.1;" parent="cEWxc5GHdfLxTCo6FRgi-1" vertex="1">
          <mxGeometry x="1440" y="1010" width="910" height="90" as="geometry" />
        </mxCell>
        <mxCell id="cEWxc5GHdfLxTCo6FRgi-150" value="GWLB" style="sketch=0;points=[[0,0,0],[0.25,0,0],[0.5,0,0],[0.75,0,0],[1,0,0],[0,1,0],[0.25,1,0],[0.5,1,0],[0.75,1,0],[1,1,0],[0,0.25,0],[0,0.5,0],[0,0.75,0],[1,0.25,0],[1,0.5,0],[1,0.75,0]];outlineConnect=0;fontColor=#232F3E;gradientColor=#945DF2;gradientDirection=north;fillColor=#5A30B5;strokeColor=#ffffff;dashed=0;verticalLabelPosition=bottom;verticalAlign=top;align=center;html=1;fontSize=12;fontStyle=0;aspect=fixed;shape=mxgraph.aws4.resourceIcon;resIcon=mxgraph.aws4.elastic_load_balancing;" parent="cEWxc5GHdfLxTCo6FRgi-1" vertex="1">
          <mxGeometry x="1030" y="500" width="78" height="78" as="geometry" />
        </mxCell>
        <mxCell id="cEWxc5GHdfLxTCo6FRgi-241" value="Firewall Public azA Net 100.96.192.0/26" style="swimlane;whiteSpace=wrap;html=1;startSize=30;fillColor=#f8cecc;strokeColor=#b85450;" parent="cEWxc5GHdfLxTCo6FRgi-1" vertex="1">
          <mxGeometry x="820" y="330" width="215" height="150" as="geometry" />
        </mxCell>
        <mxCell id="cEWxc5GHdfLxTCo6FRgi-303" value="Firewall&amp;nbsp; azA&lt;br&gt;&lt;br&gt;Firewall RT has entry for 10.63.0.32 -&amp;gt; GENEVE interface" style="shape=cube;whiteSpace=wrap;html=1;boundedLbl=1;backgroundOutline=1;darkOpacity=0.05;darkOpacity2=0.1;" parent="cEWxc5GHdfLxTCo6FRgi-1" vertex="1">
          <mxGeometry x="1420" y="480" width="910" height="90" as="geometry" />
        </mxCell>
        <mxCell id="cEWxc5GHdfLxTCo6FRgi-479" style="edgeStyle=orthogonalEdgeStyle;rounded=0;orthogonalLoop=1;jettySize=auto;html=1;entryX=0.75;entryY=0;entryDx=0;entryDy=0;fillColor=#f8cecc;strokeColor=#b85450;strokeWidth=2;" parent="1" source="cEWxc5GHdfLxTCo6FRgi-4" target="cEWxc5GHdfLxTCo6FRgi-250" edge="1">
          <mxGeometry relative="1" as="geometry" />
        </mxCell>
        <mxCell id="cEWxc5GHdfLxTCo6FRgi-4" value="AWS Transit Gateware (Shared Network)" style="sketch=0;points=[[0,0,0],[0.25,0,0],[0.5,0,0],[0.75,0,0],[1,0,0],[0,1,0],[0.25,1,0],[0.5,1,0],[0.75,1,0],[1,1,0],[0,0.25,0],[0,0.5,0],[0,0.75,0],[1,0.25,0],[1,0.5,0],[1,0.75,0]];outlineConnect=0;fontColor=#232F3E;gradientColor=#945DF2;gradientDirection=north;fillColor=#5A30B5;strokeColor=#ffffff;dashed=0;verticalLabelPosition=bottom;verticalAlign=top;align=center;html=1;fontSize=12;fontStyle=0;aspect=fixed;shape=mxgraph.aws4.resourceIcon;resIcon=mxgraph.aws4.transit_gateway;" parent="1" vertex="1">
          <mxGeometry x="-892.5" y="-150" width="195" height="195" as="geometry" />
        </mxCell>
        <mxCell id="cEWxc5GHdfLxTCo6FRgi-151" value="" style="sketch=0;outlineConnect=0;fontColor=#232F3E;gradientColor=none;fillColor=#4D27AA;strokeColor=none;dashed=0;verticalLabelPosition=bottom;verticalAlign=top;align=center;html=1;fontSize=12;fontStyle=0;aspect=fixed;pointerEvents=1;shape=mxgraph.aws4.gateway_load_balancer;" parent="1" vertex="1">
          <mxGeometry x="-2200" y="-400" width="78" height="78" as="geometry" />
        </mxCell>
        <mxCell id="cEWxc5GHdfLxTCo6FRgi-221" value="" style="shape=table;startSize=0;container=1;collapsible=0;childLayout=tableLayout;" parent="1" vertex="1">
          <mxGeometry x="-1020" y="-500" width="320" height="200" as="geometry" />
        </mxCell>
        <mxCell id="cEWxc5GHdfLxTCo6FRgi-222" value="" style="shape=tableRow;horizontal=0;startSize=0;swimlaneHead=0;swimlaneBody=0;strokeColor=inherit;top=0;left=0;bottom=0;right=0;collapsible=0;dropTarget=0;fillColor=none;points=[[0,0.5],[1,0.5]];portConstraint=eastwest;" parent="cEWxc5GHdfLxTCo6FRgi-221" vertex="1">
          <mxGeometry width="320" height="40" as="geometry" />
        </mxCell>
        <mxCell id="cEWxc5GHdfLxTCo6FRgi-223" value="0.0.0.0/0" style="shape=partialRectangle;html=1;whiteSpace=wrap;connectable=0;strokeColor=inherit;overflow=hidden;fillColor=none;top=0;left=0;bottom=0;right=0;pointerEvents=1;" parent="cEWxc5GHdfLxTCo6FRgi-222" vertex="1">
          <mxGeometry width="110" height="40" as="geometry">
            <mxRectangle width="110" height="40" as="alternateBounds" />
          </mxGeometry>
        </mxCell>
        <mxCell id="cEWxc5GHdfLxTCo6FRgi-224" value="" style="shape=partialRectangle;html=1;whiteSpace=wrap;connectable=0;strokeColor=inherit;overflow=hidden;fillColor=none;top=0;left=0;bottom=0;right=0;pointerEvents=1;" parent="cEWxc5GHdfLxTCo6FRgi-222" vertex="1">
          <mxGeometry x="110" width="210" height="40" as="geometry">
            <mxRectangle width="210" height="40" as="alternateBounds" />
          </mxGeometry>
        </mxCell>
        <mxCell id="cEWxc5GHdfLxTCo6FRgi-225" value="" style="shape=tableRow;horizontal=0;startSize=0;swimlaneHead=0;swimlaneBody=0;strokeColor=inherit;top=0;left=0;bottom=0;right=0;collapsible=0;dropTarget=0;fillColor=none;points=[[0,0.5],[1,0.5]];portConstraint=eastwest;" parent="cEWxc5GHdfLxTCo6FRgi-221" vertex="1">
          <mxGeometry y="40" width="320" height="40" as="geometry" />
        </mxCell>
        <mxCell id="cEWxc5GHdfLxTCo6FRgi-226" value="10.1.0.0/16" style="shape=partialRectangle;html=1;whiteSpace=wrap;connectable=0;strokeColor=inherit;overflow=hidden;fillColor=none;top=0;left=0;bottom=0;right=0;pointerEvents=1;" parent="cEWxc5GHdfLxTCo6FRgi-225" vertex="1">
          <mxGeometry width="110" height="40" as="geometry">
            <mxRectangle width="110" height="40" as="alternateBounds" />
          </mxGeometry>
        </mxCell>
        <mxCell id="cEWxc5GHdfLxTCo6FRgi-227" value="" style="shape=partialRectangle;html=1;whiteSpace=wrap;connectable=0;strokeColor=inherit;overflow=hidden;fillColor=none;top=0;left=0;bottom=0;right=0;pointerEvents=1;" parent="cEWxc5GHdfLxTCo6FRgi-225" vertex="1">
          <mxGeometry x="110" width="210" height="40" as="geometry">
            <mxRectangle width="210" height="40" as="alternateBounds" />
          </mxGeometry>
        </mxCell>
        <mxCell id="cEWxc5GHdfLxTCo6FRgi-228" value="" style="shape=tableRow;horizontal=0;startSize=0;swimlaneHead=0;swimlaneBody=0;strokeColor=inherit;top=0;left=0;bottom=0;right=0;collapsible=0;dropTarget=0;fillColor=none;points=[[0,0.5],[1,0.5]];portConstraint=eastwest;" parent="cEWxc5GHdfLxTCo6FRgi-221" vertex="1">
          <mxGeometry y="80" width="320" height="40" as="geometry" />
        </mxCell>
        <mxCell id="cEWxc5GHdfLxTCo6FRgi-229" value="10.2.0.0/16" style="shape=partialRectangle;html=1;whiteSpace=wrap;connectable=0;strokeColor=inherit;overflow=hidden;fillColor=none;top=0;left=0;bottom=0;right=0;pointerEvents=1;" parent="cEWxc5GHdfLxTCo6FRgi-228" vertex="1">
          <mxGeometry width="110" height="40" as="geometry">
            <mxRectangle width="110" height="40" as="alternateBounds" />
          </mxGeometry>
        </mxCell>
        <mxCell id="cEWxc5GHdfLxTCo6FRgi-230" value="" style="shape=partialRectangle;html=1;whiteSpace=wrap;connectable=0;strokeColor=inherit;overflow=hidden;fillColor=none;top=0;left=0;bottom=0;right=0;pointerEvents=1;" parent="cEWxc5GHdfLxTCo6FRgi-228" vertex="1">
          <mxGeometry x="110" width="210" height="40" as="geometry">
            <mxRectangle width="210" height="40" as="alternateBounds" />
          </mxGeometry>
        </mxCell>
        <mxCell id="cEWxc5GHdfLxTCo6FRgi-231" value="" style="shape=tableRow;horizontal=0;startSize=0;swimlaneHead=0;swimlaneBody=0;strokeColor=inherit;top=0;left=0;bottom=0;right=0;collapsible=0;dropTarget=0;fillColor=none;points=[[0,0.5],[1,0.5]];portConstraint=eastwest;" parent="cEWxc5GHdfLxTCo6FRgi-221" vertex="1">
          <mxGeometry y="120" width="320" height="40" as="geometry" />
        </mxCell>
        <mxCell id="cEWxc5GHdfLxTCo6FRgi-232" value="100.96.192.8/32" style="shape=partialRectangle;html=1;whiteSpace=wrap;connectable=0;strokeColor=inherit;overflow=hidden;fillColor=none;top=0;left=0;bottom=0;right=0;pointerEvents=1;" parent="cEWxc5GHdfLxTCo6FRgi-231" vertex="1">
          <mxGeometry width="110" height="40" as="geometry">
            <mxRectangle width="110" height="40" as="alternateBounds" />
          </mxGeometry>
        </mxCell>
        <mxCell id="cEWxc5GHdfLxTCo6FRgi-233" value="VPN Attachment azA" style="shape=partialRectangle;html=1;whiteSpace=wrap;connectable=0;strokeColor=inherit;overflow=hidden;fillColor=none;top=0;left=0;bottom=0;right=0;pointerEvents=1;" parent="cEWxc5GHdfLxTCo6FRgi-231" vertex="1">
          <mxGeometry x="110" width="210" height="40" as="geometry">
            <mxRectangle width="210" height="40" as="alternateBounds" />
          </mxGeometry>
        </mxCell>
        <mxCell id="cEWxc5GHdfLxTCo6FRgi-234" value="" style="shape=tableRow;horizontal=0;startSize=0;swimlaneHead=0;swimlaneBody=0;strokeColor=inherit;top=0;left=0;bottom=0;right=0;collapsible=0;dropTarget=0;fillColor=none;points=[[0,0.5],[1,0.5]];portConstraint=eastwest;" parent="cEWxc5GHdfLxTCo6FRgi-221" vertex="1">
          <mxGeometry y="160" width="320" height="40" as="geometry" />
        </mxCell>
        <mxCell id="cEWxc5GHdfLxTCo6FRgi-235" value="169.254.148.70/32" style="shape=partialRectangle;html=1;whiteSpace=wrap;connectable=0;strokeColor=inherit;overflow=hidden;fillColor=none;top=0;left=0;bottom=0;right=0;pointerEvents=1;" parent="cEWxc5GHdfLxTCo6FRgi-234" vertex="1">
          <mxGeometry width="110" height="40" as="geometry">
            <mxRectangle width="110" height="40" as="alternateBounds" />
          </mxGeometry>
        </mxCell>
        <mxCell id="cEWxc5GHdfLxTCo6FRgi-236" value="VPN Attachment azB" style="shape=partialRectangle;html=1;whiteSpace=wrap;connectable=0;strokeColor=inherit;overflow=hidden;fillColor=none;top=0;left=0;bottom=0;right=0;pointerEvents=1;" parent="cEWxc5GHdfLxTCo6FRgi-234" vertex="1">
          <mxGeometry x="110" width="210" height="40" as="geometry">
            <mxRectangle width="210" height="40" as="alternateBounds" />
          </mxGeometry>
        </mxCell>
        <mxCell id="cEWxc5GHdfLxTCo6FRgi-238" value="" style="shape=table;startSize=0;container=1;collapsible=0;childLayout=tableLayout;swimlaneFillColor=none;fillColor=#f5f5f5;strokeColor=#666666;fontColor=#333333;" parent="1" vertex="1">
          <mxGeometry x="-1020" y="-530" width="320" height="30" as="geometry" />
        </mxCell>
        <mxCell id="cEWxc5GHdfLxTCo6FRgi-239" value="" style="shape=tableRow;horizontal=0;startSize=0;swimlaneHead=0;swimlaneBody=0;strokeColor=inherit;top=0;left=0;bottom=0;right=0;collapsible=0;dropTarget=0;fillColor=none;points=[[0,0.5],[1,0.5]];portConstraint=eastwest;" parent="cEWxc5GHdfLxTCo6FRgi-238" vertex="1">
          <mxGeometry width="320" height="30" as="geometry" />
        </mxCell>
        <mxCell id="cEWxc5GHdfLxTCo6FRgi-240" value="TGW RT -&amp;nbsp;&amp;nbsp;Main_tgw_Core_rt" style="shape=partialRectangle;html=1;whiteSpace=wrap;connectable=0;strokeColor=inherit;overflow=hidden;fillColor=none;top=0;left=0;bottom=0;right=0;pointerEvents=1;" parent="cEWxc5GHdfLxTCo6FRgi-239" vertex="1">
          <mxGeometry width="320" height="30" as="geometry">
            <mxRectangle width="320" height="30" as="alternateBounds" />
          </mxGeometry>
        </mxCell>
        <mxCell id="cEWxc5GHdfLxTCo6FRgi-249" value="" style="group" parent="1" vertex="1" connectable="0">
          <mxGeometry x="-1400" y="-410" width="320" height="610" as="geometry" />
        </mxCell>
        <mxCell id="cEWxc5GHdfLxTCo6FRgi-210" value="" style="shape=partialRectangle;html=1;whiteSpace=wrap;connectable=0;strokeColor=inherit;overflow=hidden;fillColor=none;top=0;left=0;bottom=0;right=0;pointerEvents=1;" parent="cEWxc5GHdfLxTCo6FRgi-249" vertex="1">
          <mxGeometry x="140" y="570" width="110" height="40" as="geometry">
            <mxRectangle width="110" height="40" as="alternateBounds" />
          </mxGeometry>
        </mxCell>
        <mxCell id="cEWxc5GHdfLxTCo6FRgi-247" value="APP OU &amp;lt;-&amp;gt; MAIN &lt;br&gt;&lt;br&gt;TGW Attachment" style="shape=process;whiteSpace=wrap;html=1;backgroundOutline=1;fillColor=#d5e8d4;strokeColor=#82b366;" parent="cEWxc5GHdfLxTCo6FRgi-249" vertex="1">
          <mxGeometry width="320" height="60" as="geometry" />
        </mxCell>
        <mxCell id="cEWxc5GHdfLxTCo6FRgi-248" value="" style="group;fillColor=#f5f5f5;fontColor=#333333;strokeColor=#666666;" parent="cEWxc5GHdfLxTCo6FRgi-249" vertex="1" connectable="0">
          <mxGeometry y="60" width="320" height="550" as="geometry" />
        </mxCell>
        <mxCell id="cEWxc5GHdfLxTCo6FRgi-167" value="" style="shape=table;startSize=0;container=1;collapsible=0;childLayout=tableLayout;" parent="cEWxc5GHdfLxTCo6FRgi-248" vertex="1">
          <mxGeometry y="30" width="320" height="520" as="geometry" />
        </mxCell>
        <mxCell id="cEWxc5GHdfLxTCo6FRgi-168" value="" style="shape=tableRow;horizontal=0;startSize=0;swimlaneHead=0;swimlaneBody=0;strokeColor=inherit;top=0;left=0;bottom=0;right=0;collapsible=0;dropTarget=0;fillColor=none;points=[[0,0.5],[1,0.5]];portConstraint=eastwest;" parent="cEWxc5GHdfLxTCo6FRgi-167" vertex="1">
          <mxGeometry width="320" height="40" as="geometry" />
        </mxCell>
        <mxCell id="cEWxc5GHdfLxTCo6FRgi-169" value="0.0.0.0/0" style="shape=partialRectangle;html=1;whiteSpace=wrap;connectable=0;strokeColor=inherit;overflow=hidden;fillColor=#FFFF99;top=0;left=0;bottom=0;right=0;pointerEvents=1;" parent="cEWxc5GHdfLxTCo6FRgi-168" vertex="1">
          <mxGeometry width="110" height="40" as="geometry">
            <mxRectangle width="110" height="40" as="alternateBounds" />
          </mxGeometry>
        </mxCell>
        <mxCell id="cEWxc5GHdfLxTCo6FRgi-170" value="Inspection VPC Attachment" style="shape=partialRectangle;html=1;whiteSpace=wrap;connectable=0;strokeColor=inherit;overflow=hidden;fillColor=#FFFF99;top=0;left=0;bottom=0;right=0;pointerEvents=1;" parent="cEWxc5GHdfLxTCo6FRgi-168" vertex="1">
          <mxGeometry x="110" width="210" height="40" as="geometry">
            <mxRectangle width="210" height="40" as="alternateBounds" />
          </mxGeometry>
        </mxCell>
        <mxCell id="cEWxc5GHdfLxTCo6FRgi-171" value="" style="shape=tableRow;horizontal=0;startSize=0;swimlaneHead=0;swimlaneBody=0;strokeColor=inherit;top=0;left=0;bottom=0;right=0;collapsible=0;dropTarget=0;fillColor=none;points=[[0,0.5],[1,0.5]];portConstraint=eastwest;" parent="cEWxc5GHdfLxTCo6FRgi-167" vertex="1">
          <mxGeometry y="40" width="320" height="40" as="geometry" />
        </mxCell>
        <mxCell id="cEWxc5GHdfLxTCo6FRgi-172" value="10.1.0.0/16" style="shape=partialRectangle;html=1;whiteSpace=wrap;connectable=0;strokeColor=inherit;overflow=hidden;fillColor=none;top=0;left=0;bottom=0;right=0;pointerEvents=1;" parent="cEWxc5GHdfLxTCo6FRgi-171" vertex="1">
          <mxGeometry width="110" height="40" as="geometry">
            <mxRectangle width="110" height="40" as="alternateBounds" />
          </mxGeometry>
        </mxCell>
        <mxCell id="cEWxc5GHdfLxTCo6FRgi-173" value="Central VPC Attachment" style="shape=partialRectangle;html=1;whiteSpace=wrap;connectable=0;strokeColor=inherit;overflow=hidden;fillColor=none;top=0;left=0;bottom=0;right=0;pointerEvents=1;" parent="cEWxc5GHdfLxTCo6FRgi-171" vertex="1">
          <mxGeometry x="110" width="210" height="40" as="geometry">
            <mxRectangle width="210" height="40" as="alternateBounds" />
          </mxGeometry>
        </mxCell>
        <mxCell id="cEWxc5GHdfLxTCo6FRgi-174" value="" style="shape=tableRow;horizontal=0;startSize=0;swimlaneHead=0;swimlaneBody=0;strokeColor=inherit;top=0;left=0;bottom=0;right=0;collapsible=0;dropTarget=0;fillColor=none;points=[[0,0.5],[1,0.5]];portConstraint=eastwest;" parent="cEWxc5GHdfLxTCo6FRgi-167" vertex="1">
          <mxGeometry y="80" width="320" height="40" as="geometry" />
        </mxCell>
        <mxCell id="cEWxc5GHdfLxTCo6FRgi-175" value="10.2.0.0/16" style="shape=partialRectangle;html=1;whiteSpace=wrap;connectable=0;strokeColor=inherit;overflow=hidden;fillColor=none;top=0;left=0;bottom=0;right=0;pointerEvents=1;" parent="cEWxc5GHdfLxTCo6FRgi-174" vertex="1">
          <mxGeometry width="110" height="40" as="geometry">
            <mxRectangle width="110" height="40" as="alternateBounds" />
          </mxGeometry>
        </mxCell>
        <mxCell id="cEWxc5GHdfLxTCo6FRgi-176" value="black hole" style="shape=partialRectangle;html=1;whiteSpace=wrap;connectable=0;strokeColor=inherit;overflow=hidden;fillColor=none;top=0;left=0;bottom=0;right=0;pointerEvents=1;" parent="cEWxc5GHdfLxTCo6FRgi-174" vertex="1">
          <mxGeometry x="110" width="210" height="40" as="geometry">
            <mxRectangle width="210" height="40" as="alternateBounds" />
          </mxGeometry>
        </mxCell>
        <mxCell id="cEWxc5GHdfLxTCo6FRgi-177" value="" style="shape=tableRow;horizontal=0;startSize=0;swimlaneHead=0;swimlaneBody=0;strokeColor=inherit;top=0;left=0;bottom=0;right=0;collapsible=0;dropTarget=0;fillColor=none;points=[[0,0.5],[1,0.5]];portConstraint=eastwest;" parent="cEWxc5GHdfLxTCo6FRgi-167" vertex="1">
          <mxGeometry y="120" width="320" height="40" as="geometry" />
        </mxCell>
        <mxCell id="cEWxc5GHdfLxTCo6FRgi-178" value="10.3.0.0/16" style="shape=partialRectangle;html=1;whiteSpace=wrap;connectable=0;strokeColor=inherit;overflow=hidden;fillColor=none;top=0;left=0;bottom=0;right=0;pointerEvents=1;" parent="cEWxc5GHdfLxTCo6FRgi-177" vertex="1">
          <mxGeometry width="110" height="40" as="geometry">
            <mxRectangle width="110" height="40" as="alternateBounds" />
          </mxGeometry>
        </mxCell>
        <mxCell id="cEWxc5GHdfLxTCo6FRgi-179" value="black hole" style="shape=partialRectangle;html=1;whiteSpace=wrap;connectable=0;strokeColor=inherit;overflow=hidden;fillColor=none;top=0;left=0;bottom=0;right=0;pointerEvents=1;" parent="cEWxc5GHdfLxTCo6FRgi-177" vertex="1">
          <mxGeometry x="110" width="210" height="40" as="geometry">
            <mxRectangle width="210" height="40" as="alternateBounds" />
          </mxGeometry>
        </mxCell>
        <mxCell id="cEWxc5GHdfLxTCo6FRgi-180" value="" style="shape=tableRow;horizontal=0;startSize=0;swimlaneHead=0;swimlaneBody=0;strokeColor=inherit;top=0;left=0;bottom=0;right=0;collapsible=0;dropTarget=0;fillColor=none;points=[[0,0.5],[1,0.5]];portConstraint=eastwest;" parent="cEWxc5GHdfLxTCo6FRgi-167" vertex="1">
          <mxGeometry y="160" width="320" height="40" as="geometry" />
        </mxCell>
        <mxCell id="cEWxc5GHdfLxTCo6FRgi-181" value="....." style="shape=partialRectangle;html=1;whiteSpace=wrap;connectable=0;strokeColor=inherit;overflow=hidden;fillColor=none;top=0;left=0;bottom=0;right=0;pointerEvents=1;" parent="cEWxc5GHdfLxTCo6FRgi-180" vertex="1">
          <mxGeometry width="110" height="40" as="geometry">
            <mxRectangle width="110" height="40" as="alternateBounds" />
          </mxGeometry>
        </mxCell>
        <mxCell id="cEWxc5GHdfLxTCo6FRgi-182" value="black hole" style="shape=partialRectangle;html=1;whiteSpace=wrap;connectable=0;strokeColor=inherit;overflow=hidden;fillColor=none;top=0;left=0;bottom=0;right=0;pointerEvents=1;" parent="cEWxc5GHdfLxTCo6FRgi-180" vertex="1">
          <mxGeometry x="110" width="210" height="40" as="geometry">
            <mxRectangle width="210" height="40" as="alternateBounds" />
          </mxGeometry>
        </mxCell>
        <mxCell id="cEWxc5GHdfLxTCo6FRgi-183" value="" style="shape=tableRow;horizontal=0;startSize=0;swimlaneHead=0;swimlaneBody=0;strokeColor=inherit;top=0;left=0;bottom=0;right=0;collapsible=0;dropTarget=0;fillColor=none;points=[[0,0.5],[1,0.5]];portConstraint=eastwest;" parent="cEWxc5GHdfLxTCo6FRgi-167" vertex="1">
          <mxGeometry y="200" width="320" height="40" as="geometry" />
        </mxCell>
        <mxCell id="cEWxc5GHdfLxTCo6FRgi-184" value="100.96.192.8/32" style="shape=partialRectangle;html=1;whiteSpace=wrap;connectable=0;strokeColor=inherit;overflow=hidden;fillColor=none;top=0;left=0;bottom=0;right=0;pointerEvents=1;" parent="cEWxc5GHdfLxTCo6FRgi-183" vertex="1">
          <mxGeometry width="110" height="40" as="geometry">
            <mxRectangle width="110" height="40" as="alternateBounds" />
          </mxGeometry>
        </mxCell>
        <mxCell id="cEWxc5GHdfLxTCo6FRgi-185" value="inspection VPC attachment" style="shape=partialRectangle;html=1;whiteSpace=wrap;connectable=0;strokeColor=inherit;overflow=hidden;fillColor=none;top=0;left=0;bottom=0;right=0;pointerEvents=1;" parent="cEWxc5GHdfLxTCo6FRgi-183" vertex="1">
          <mxGeometry x="110" width="210" height="40" as="geometry">
            <mxRectangle width="210" height="40" as="alternateBounds" />
          </mxGeometry>
        </mxCell>
        <mxCell id="cEWxc5GHdfLxTCo6FRgi-186" value="" style="shape=tableRow;horizontal=0;startSize=0;swimlaneHead=0;swimlaneBody=0;strokeColor=inherit;top=0;left=0;bottom=0;right=0;collapsible=0;dropTarget=0;fillColor=none;points=[[0,0.5],[1,0.5]];portConstraint=eastwest;" parent="cEWxc5GHdfLxTCo6FRgi-167" vertex="1">
          <mxGeometry y="240" width="320" height="40" as="geometry" />
        </mxCell>
        <mxCell id="cEWxc5GHdfLxTCo6FRgi-187" value="" style="shape=partialRectangle;html=1;whiteSpace=wrap;connectable=0;strokeColor=inherit;overflow=hidden;fillColor=none;top=0;left=0;bottom=0;right=0;pointerEvents=1;" parent="cEWxc5GHdfLxTCo6FRgi-186" vertex="1">
          <mxGeometry width="110" height="40" as="geometry">
            <mxRectangle width="110" height="40" as="alternateBounds" />
          </mxGeometry>
        </mxCell>
        <mxCell id="cEWxc5GHdfLxTCo6FRgi-188" value="" style="shape=partialRectangle;html=1;whiteSpace=wrap;connectable=0;strokeColor=inherit;overflow=hidden;fillColor=none;top=0;left=0;bottom=0;right=0;pointerEvents=1;" parent="cEWxc5GHdfLxTCo6FRgi-186" vertex="1">
          <mxGeometry x="110" width="210" height="40" as="geometry">
            <mxRectangle width="210" height="40" as="alternateBounds" />
          </mxGeometry>
        </mxCell>
        <mxCell id="cEWxc5GHdfLxTCo6FRgi-189" value="" style="shape=tableRow;horizontal=0;startSize=0;swimlaneHead=0;swimlaneBody=0;strokeColor=inherit;top=0;left=0;bottom=0;right=0;collapsible=0;dropTarget=0;fillColor=none;points=[[0,0.5],[1,0.5]];portConstraint=eastwest;" parent="cEWxc5GHdfLxTCo6FRgi-167" vertex="1">
          <mxGeometry y="280" width="320" height="40" as="geometry" />
        </mxCell>
        <mxCell id="cEWxc5GHdfLxTCo6FRgi-190" value="" style="shape=partialRectangle;html=1;whiteSpace=wrap;connectable=0;strokeColor=inherit;overflow=hidden;fillColor=none;top=0;left=0;bottom=0;right=0;pointerEvents=1;" parent="cEWxc5GHdfLxTCo6FRgi-189" vertex="1">
          <mxGeometry width="110" height="40" as="geometry">
            <mxRectangle width="110" height="40" as="alternateBounds" />
          </mxGeometry>
        </mxCell>
        <mxCell id="cEWxc5GHdfLxTCo6FRgi-191" value="" style="shape=partialRectangle;html=1;whiteSpace=wrap;connectable=0;strokeColor=inherit;overflow=hidden;fillColor=none;top=0;left=0;bottom=0;right=0;pointerEvents=1;" parent="cEWxc5GHdfLxTCo6FRgi-189" vertex="1">
          <mxGeometry x="110" width="210" height="40" as="geometry">
            <mxRectangle width="210" height="40" as="alternateBounds" />
          </mxGeometry>
        </mxCell>
        <mxCell id="cEWxc5GHdfLxTCo6FRgi-192" value="" style="shape=tableRow;horizontal=0;startSize=0;swimlaneHead=0;swimlaneBody=0;strokeColor=inherit;top=0;left=0;bottom=0;right=0;collapsible=0;dropTarget=0;fillColor=none;points=[[0,0.5],[1,0.5]];portConstraint=eastwest;" parent="cEWxc5GHdfLxTCo6FRgi-167" vertex="1">
          <mxGeometry y="320" width="320" height="40" as="geometry" />
        </mxCell>
        <mxCell id="cEWxc5GHdfLxTCo6FRgi-193" value="" style="shape=partialRectangle;html=1;whiteSpace=wrap;connectable=0;strokeColor=inherit;overflow=hidden;fillColor=none;top=0;left=0;bottom=0;right=0;pointerEvents=1;" parent="cEWxc5GHdfLxTCo6FRgi-192" vertex="1">
          <mxGeometry width="110" height="40" as="geometry">
            <mxRectangle width="110" height="40" as="alternateBounds" />
          </mxGeometry>
        </mxCell>
        <mxCell id="cEWxc5GHdfLxTCo6FRgi-194" value="" style="shape=partialRectangle;html=1;whiteSpace=wrap;connectable=0;strokeColor=inherit;overflow=hidden;fillColor=none;top=0;left=0;bottom=0;right=0;pointerEvents=1;" parent="cEWxc5GHdfLxTCo6FRgi-192" vertex="1">
          <mxGeometry x="110" width="210" height="40" as="geometry">
            <mxRectangle width="210" height="40" as="alternateBounds" />
          </mxGeometry>
        </mxCell>
        <mxCell id="cEWxc5GHdfLxTCo6FRgi-195" value="" style="shape=tableRow;horizontal=0;startSize=0;swimlaneHead=0;swimlaneBody=0;strokeColor=inherit;top=0;left=0;bottom=0;right=0;collapsible=0;dropTarget=0;fillColor=none;points=[[0,0.5],[1,0.5]];portConstraint=eastwest;" parent="cEWxc5GHdfLxTCo6FRgi-167" vertex="1">
          <mxGeometry y="360" width="320" height="40" as="geometry" />
        </mxCell>
        <mxCell id="cEWxc5GHdfLxTCo6FRgi-196" value="" style="shape=partialRectangle;html=1;whiteSpace=wrap;connectable=0;strokeColor=inherit;overflow=hidden;fillColor=none;top=0;left=0;bottom=0;right=0;pointerEvents=1;" parent="cEWxc5GHdfLxTCo6FRgi-195" vertex="1">
          <mxGeometry width="110" height="40" as="geometry">
            <mxRectangle width="110" height="40" as="alternateBounds" />
          </mxGeometry>
        </mxCell>
        <mxCell id="cEWxc5GHdfLxTCo6FRgi-197" value="" style="shape=partialRectangle;html=1;whiteSpace=wrap;connectable=0;strokeColor=inherit;overflow=hidden;fillColor=none;top=0;left=0;bottom=0;right=0;pointerEvents=1;" parent="cEWxc5GHdfLxTCo6FRgi-195" vertex="1">
          <mxGeometry x="110" width="210" height="40" as="geometry">
            <mxRectangle width="210" height="40" as="alternateBounds" />
          </mxGeometry>
        </mxCell>
        <mxCell id="cEWxc5GHdfLxTCo6FRgi-198" value="" style="shape=tableRow;horizontal=0;startSize=0;swimlaneHead=0;swimlaneBody=0;strokeColor=inherit;top=0;left=0;bottom=0;right=0;collapsible=0;dropTarget=0;fillColor=none;points=[[0,0.5],[1,0.5]];portConstraint=eastwest;" parent="cEWxc5GHdfLxTCo6FRgi-167" vertex="1">
          <mxGeometry y="400" width="320" height="40" as="geometry" />
        </mxCell>
        <mxCell id="cEWxc5GHdfLxTCo6FRgi-199" value="" style="shape=partialRectangle;html=1;whiteSpace=wrap;connectable=0;strokeColor=inherit;overflow=hidden;fillColor=none;top=0;left=0;bottom=0;right=0;pointerEvents=1;" parent="cEWxc5GHdfLxTCo6FRgi-198" vertex="1">
          <mxGeometry width="110" height="40" as="geometry">
            <mxRectangle width="110" height="40" as="alternateBounds" />
          </mxGeometry>
        </mxCell>
        <mxCell id="cEWxc5GHdfLxTCo6FRgi-200" value="" style="shape=partialRectangle;html=1;whiteSpace=wrap;connectable=0;strokeColor=inherit;overflow=hidden;fillColor=none;top=0;left=0;bottom=0;right=0;pointerEvents=1;" parent="cEWxc5GHdfLxTCo6FRgi-198" vertex="1">
          <mxGeometry x="110" width="210" height="40" as="geometry">
            <mxRectangle width="210" height="40" as="alternateBounds" />
          </mxGeometry>
        </mxCell>
        <mxCell id="cEWxc5GHdfLxTCo6FRgi-201" value="" style="shape=tableRow;horizontal=0;startSize=0;swimlaneHead=0;swimlaneBody=0;strokeColor=inherit;top=0;left=0;bottom=0;right=0;collapsible=0;dropTarget=0;fillColor=none;points=[[0,0.5],[1,0.5]];portConstraint=eastwest;" parent="cEWxc5GHdfLxTCo6FRgi-167" vertex="1">
          <mxGeometry y="440" width="320" height="40" as="geometry" />
        </mxCell>
        <mxCell id="cEWxc5GHdfLxTCo6FRgi-202" value="" style="shape=partialRectangle;html=1;whiteSpace=wrap;connectable=0;strokeColor=inherit;overflow=hidden;fillColor=none;top=0;left=0;bottom=0;right=0;pointerEvents=1;" parent="cEWxc5GHdfLxTCo6FRgi-201" vertex="1">
          <mxGeometry width="110" height="40" as="geometry">
            <mxRectangle width="110" height="40" as="alternateBounds" />
          </mxGeometry>
        </mxCell>
        <mxCell id="cEWxc5GHdfLxTCo6FRgi-203" value="" style="shape=partialRectangle;html=1;whiteSpace=wrap;connectable=0;strokeColor=inherit;overflow=hidden;fillColor=none;top=0;left=0;bottom=0;right=0;pointerEvents=1;" parent="cEWxc5GHdfLxTCo6FRgi-201" vertex="1">
          <mxGeometry x="110" width="210" height="40" as="geometry">
            <mxRectangle width="210" height="40" as="alternateBounds" />
          </mxGeometry>
        </mxCell>
        <mxCell id="cEWxc5GHdfLxTCo6FRgi-204" value="" style="shape=tableRow;horizontal=0;startSize=0;swimlaneHead=0;swimlaneBody=0;strokeColor=inherit;top=0;left=0;bottom=0;right=0;collapsible=0;dropTarget=0;fillColor=none;points=[[0,0.5],[1,0.5]];portConstraint=eastwest;" parent="cEWxc5GHdfLxTCo6FRgi-167" vertex="1">
          <mxGeometry y="480" width="320" height="40" as="geometry" />
        </mxCell>
        <mxCell id="cEWxc5GHdfLxTCo6FRgi-205" value="" style="shape=partialRectangle;html=1;whiteSpace=wrap;connectable=0;strokeColor=inherit;overflow=hidden;fillColor=none;top=0;left=0;bottom=0;right=0;pointerEvents=1;" parent="cEWxc5GHdfLxTCo6FRgi-204" vertex="1">
          <mxGeometry width="110" height="40" as="geometry">
            <mxRectangle width="110" height="40" as="alternateBounds" />
          </mxGeometry>
        </mxCell>
        <mxCell id="cEWxc5GHdfLxTCo6FRgi-206" value="" style="shape=partialRectangle;html=1;whiteSpace=wrap;connectable=0;strokeColor=inherit;overflow=hidden;fillColor=none;top=0;left=0;bottom=0;right=0;pointerEvents=1;" parent="cEWxc5GHdfLxTCo6FRgi-204" vertex="1">
          <mxGeometry x="110" width="210" height="40" as="geometry">
            <mxRectangle width="210" height="40" as="alternateBounds" />
          </mxGeometry>
        </mxCell>
        <mxCell id="cEWxc5GHdfLxTCo6FRgi-207" value="" style="shape=table;startSize=0;container=1;collapsible=0;childLayout=tableLayout;swimlaneFillColor=none;fillColor=#f5f5f5;strokeColor=#666666;fontColor=#333333;" parent="cEWxc5GHdfLxTCo6FRgi-248" vertex="1">
          <mxGeometry width="320" height="30" as="geometry" />
        </mxCell>
        <mxCell id="cEWxc5GHdfLxTCo6FRgi-208" value="" style="shape=tableRow;horizontal=0;startSize=0;swimlaneHead=0;swimlaneBody=0;strokeColor=inherit;top=0;left=0;bottom=0;right=0;collapsible=0;dropTarget=0;fillColor=none;points=[[0,0.5],[1,0.5]];portConstraint=eastwest;" parent="cEWxc5GHdfLxTCo6FRgi-207" vertex="1">
          <mxGeometry width="320" height="30" as="geometry" />
        </mxCell>
        <mxCell id="cEWxc5GHdfLxTCo6FRgi-209" value="TGW RT -&amp;nbsp;&amp;nbsp;Main_tgw_segregated_rt" style="shape=partialRectangle;html=1;whiteSpace=wrap;connectable=0;strokeColor=inherit;overflow=hidden;fillColor=none;top=0;left=0;bottom=0;right=0;pointerEvents=1;" parent="cEWxc5GHdfLxTCo6FRgi-208" vertex="1">
          <mxGeometry width="320" height="30" as="geometry">
            <mxRectangle width="320" height="30" as="alternateBounds" />
          </mxGeometry>
        </mxCell>
        <mxCell id="cEWxc5GHdfLxTCo6FRgi-251" value="" style="group" parent="1" vertex="1" connectable="0">
          <mxGeometry x="-1020" y="160" width="280" height="210" as="geometry" />
        </mxCell>
        <mxCell id="cEWxc5GHdfLxTCo6FRgi-98" value="TGW-ATT to Inspection VPC" style="group;fillColor=#d5e8d4;strokeColor=#82b366;" parent="cEWxc5GHdfLxTCo6FRgi-251" vertex="1" connectable="0">
          <mxGeometry y="60" width="280" height="150" as="geometry" />
        </mxCell>
        <mxCell id="cEWxc5GHdfLxTCo6FRgi-82" value="" style="shape=table;startSize=0;container=1;collapsible=0;childLayout=tableLayout;swimlaneFillColor=none;fillColor=#f5f5f5;strokeColor=#666666;fontColor=#333333;" parent="cEWxc5GHdfLxTCo6FRgi-98" vertex="1">
          <mxGeometry width="280" height="30" as="geometry" />
        </mxCell>
        <mxCell id="cEWxc5GHdfLxTCo6FRgi-83" value="" style="shape=tableRow;horizontal=0;startSize=0;swimlaneHead=0;swimlaneBody=0;strokeColor=inherit;top=0;left=0;bottom=0;right=0;collapsible=0;dropTarget=0;fillColor=none;points=[[0,0.5],[1,0.5]];portConstraint=eastwest;" parent="cEWxc5GHdfLxTCo6FRgi-82" vertex="1">
          <mxGeometry width="280" height="30" as="geometry" />
        </mxCell>
        <mxCell id="cEWxc5GHdfLxTCo6FRgi-84" value="TGW RT - From-Inspection-RT" style="shape=partialRectangle;html=1;whiteSpace=wrap;connectable=0;strokeColor=inherit;overflow=hidden;fillColor=none;top=0;left=0;bottom=0;right=0;pointerEvents=1;" parent="cEWxc5GHdfLxTCo6FRgi-83" vertex="1">
          <mxGeometry width="280" height="30" as="geometry">
            <mxRectangle width="280" height="30" as="alternateBounds" />
          </mxGeometry>
        </mxCell>
        <mxCell id="cEWxc5GHdfLxTCo6FRgi-88" value="" style="shape=table;startSize=0;container=1;collapsible=0;childLayout=tableLayout;" parent="cEWxc5GHdfLxTCo6FRgi-98" vertex="1">
          <mxGeometry y="30" width="280" height="120" as="geometry" />
        </mxCell>
        <mxCell id="cEWxc5GHdfLxTCo6FRgi-89" value="" style="shape=tableRow;horizontal=0;startSize=0;swimlaneHead=0;swimlaneBody=0;strokeColor=inherit;top=0;left=0;bottom=0;right=0;collapsible=0;dropTarget=0;fillColor=none;points=[[0,0.5],[1,0.5]];portConstraint=eastwest;" parent="cEWxc5GHdfLxTCo6FRgi-88" vertex="1">
          <mxGeometry width="280" height="40" as="geometry" />
        </mxCell>
        <mxCell id="cEWxc5GHdfLxTCo6FRgi-90" value="10.2.0.0/16" style="shape=partialRectangle;html=1;whiteSpace=wrap;connectable=0;strokeColor=inherit;overflow=hidden;fillColor=none;top=0;left=0;bottom=0;right=0;pointerEvents=1;" parent="cEWxc5GHdfLxTCo6FRgi-89" vertex="1">
          <mxGeometry width="114" height="40" as="geometry">
            <mxRectangle width="114" height="40" as="alternateBounds" />
          </mxGeometry>
        </mxCell>
        <mxCell id="cEWxc5GHdfLxTCo6FRgi-91" value="DEV spoke VPC" style="shape=partialRectangle;html=1;whiteSpace=wrap;connectable=0;strokeColor=inherit;overflow=hidden;fillColor=none;top=0;left=0;bottom=0;right=0;pointerEvents=1;" parent="cEWxc5GHdfLxTCo6FRgi-89" vertex="1">
          <mxGeometry x="114" width="166" height="40" as="geometry">
            <mxRectangle width="166" height="40" as="alternateBounds" />
          </mxGeometry>
        </mxCell>
        <mxCell id="cEWxc5GHdfLxTCo6FRgi-92" value="" style="shape=tableRow;horizontal=0;startSize=0;swimlaneHead=0;swimlaneBody=0;strokeColor=inherit;top=0;left=0;bottom=0;right=0;collapsible=0;dropTarget=0;fillColor=none;points=[[0,0.5],[1,0.5]];portConstraint=eastwest;" parent="cEWxc5GHdfLxTCo6FRgi-88" vertex="1">
          <mxGeometry y="40" width="280" height="40" as="geometry" />
        </mxCell>
        <mxCell id="cEWxc5GHdfLxTCo6FRgi-93" value="10.3.0.0/16" style="shape=partialRectangle;html=1;whiteSpace=wrap;connectable=0;strokeColor=inherit;overflow=hidden;fillColor=none;top=0;left=0;bottom=0;right=0;pointerEvents=1;" parent="cEWxc5GHdfLxTCo6FRgi-92" vertex="1">
          <mxGeometry width="114" height="40" as="geometry">
            <mxRectangle width="114" height="40" as="alternateBounds" />
          </mxGeometry>
        </mxCell>
        <mxCell id="cEWxc5GHdfLxTCo6FRgi-94" value="TEST spoke VPC" style="shape=partialRectangle;html=1;whiteSpace=wrap;connectable=0;strokeColor=inherit;overflow=hidden;fillColor=none;top=0;left=0;bottom=0;right=0;pointerEvents=1;" parent="cEWxc5GHdfLxTCo6FRgi-92" vertex="1">
          <mxGeometry x="114" width="166" height="40" as="geometry">
            <mxRectangle width="166" height="40" as="alternateBounds" />
          </mxGeometry>
        </mxCell>
        <mxCell id="cEWxc5GHdfLxTCo6FRgi-95" value="" style="shape=tableRow;horizontal=0;startSize=0;swimlaneHead=0;swimlaneBody=0;strokeColor=inherit;top=0;left=0;bottom=0;right=0;collapsible=0;dropTarget=0;fillColor=none;points=[[0,0.5],[1,0.5]];portConstraint=eastwest;" parent="cEWxc5GHdfLxTCo6FRgi-88" vertex="1">
          <mxGeometry y="80" width="280" height="40" as="geometry" />
        </mxCell>
        <mxCell id="cEWxc5GHdfLxTCo6FRgi-96" value="0.0.0.0/0" style="shape=partialRectangle;html=1;whiteSpace=wrap;connectable=0;strokeColor=inherit;overflow=hidden;fillColor=#FFFF99;top=0;left=0;bottom=0;right=0;pointerEvents=1;" parent="cEWxc5GHdfLxTCo6FRgi-95" vertex="1">
          <mxGeometry width="114" height="40" as="geometry">
            <mxRectangle width="114" height="40" as="alternateBounds" />
          </mxGeometry>
        </mxCell>
        <mxCell id="cEWxc5GHdfLxTCo6FRgi-97" value="SSC vCAP att" style="shape=partialRectangle;html=1;whiteSpace=wrap;connectable=0;strokeColor=inherit;overflow=hidden;fillColor=#CC99FF;top=0;left=0;bottom=0;right=0;pointerEvents=1;" parent="cEWxc5GHdfLxTCo6FRgi-95" vertex="1">
          <mxGeometry x="114" width="166" height="40" as="geometry">
            <mxRectangle width="166" height="40" as="alternateBounds" />
          </mxGeometry>
        </mxCell>
        <mxCell id="cEWxc5GHdfLxTCo6FRgi-250" value="Main &amp;lt;- Inspection&lt;br&gt;&lt;br&gt;TGW Attachment" style="shape=process;whiteSpace=wrap;html=1;backgroundOutline=1;fillColor=#f8cecc;strokeColor=#b85450;" parent="cEWxc5GHdfLxTCo6FRgi-251" vertex="1">
          <mxGeometry width="280" height="60" as="geometry" />
        </mxCell>
        <mxCell id="cEWxc5GHdfLxTCo6FRgi-252" value="MAIN &amp;lt;-&amp;gt; VPN azA" style="shape=process;whiteSpace=wrap;html=1;backgroundOutline=1;fillColor=#d5e8d4;strokeColor=#82b366;" parent="1" vertex="1">
          <mxGeometry x="-1020" y="-590" width="320" height="60" as="geometry" />
        </mxCell>
        <mxCell id="cEWxc5GHdfLxTCo6FRgi-368" value="" style="group" parent="1" vertex="1" connectable="0">
          <mxGeometry x="-1540" y="480" width="270" height="210" as="geometry" />
        </mxCell>
        <mxCell id="cEWxc5GHdfLxTCo6FRgi-369" value="TGW-ATT to Inspection VPC" style="group;fillColor=#d5e8d4;strokeColor=#82b366;" parent="cEWxc5GHdfLxTCo6FRgi-368" vertex="1" connectable="0">
          <mxGeometry y="60" width="270" height="150" as="geometry" />
        </mxCell>
        <mxCell id="cEWxc5GHdfLxTCo6FRgi-370" value="" style="shape=table;startSize=0;container=1;collapsible=0;childLayout=tableLayout;swimlaneFillColor=none;fillColor=#f5f5f5;strokeColor=#666666;fontColor=#333333;" parent="cEWxc5GHdfLxTCo6FRgi-369" vertex="1">
          <mxGeometry width="270" height="30" as="geometry" />
        </mxCell>
        <mxCell id="cEWxc5GHdfLxTCo6FRgi-371" value="" style="shape=tableRow;horizontal=0;startSize=0;swimlaneHead=0;swimlaneBody=0;strokeColor=inherit;top=0;left=0;bottom=0;right=0;collapsible=0;dropTarget=0;fillColor=none;points=[[0,0.5],[1,0.5]];portConstraint=eastwest;" parent="cEWxc5GHdfLxTCo6FRgi-370" vertex="1">
          <mxGeometry width="270" height="30" as="geometry" />
        </mxCell>
        <mxCell id="cEWxc5GHdfLxTCo6FRgi-372" value="TGW RT - from-vTIP-RT" style="shape=partialRectangle;html=1;whiteSpace=wrap;connectable=0;strokeColor=inherit;overflow=hidden;fillColor=none;top=0;left=0;bottom=0;right=0;pointerEvents=1;" parent="cEWxc5GHdfLxTCo6FRgi-371" vertex="1">
          <mxGeometry width="270" height="30" as="geometry">
            <mxRectangle width="270" height="30" as="alternateBounds" />
          </mxGeometry>
        </mxCell>
        <mxCell id="cEWxc5GHdfLxTCo6FRgi-373" value="" style="shape=table;startSize=0;container=1;collapsible=0;childLayout=tableLayout;" parent="cEWxc5GHdfLxTCo6FRgi-369" vertex="1">
          <mxGeometry y="30" width="270" height="120" as="geometry" />
        </mxCell>
        <mxCell id="cEWxc5GHdfLxTCo6FRgi-374" value="" style="shape=tableRow;horizontal=0;startSize=0;swimlaneHead=0;swimlaneBody=0;strokeColor=inherit;top=0;left=0;bottom=0;right=0;collapsible=0;dropTarget=0;fillColor=none;points=[[0,0.5],[1,0.5]];portConstraint=eastwest;" parent="cEWxc5GHdfLxTCo6FRgi-373" vertex="1">
          <mxGeometry width="270" height="40" as="geometry" />
        </mxCell>
        <mxCell id="cEWxc5GHdfLxTCo6FRgi-375" value="100.96.192.0/23" style="shape=partialRectangle;html=1;whiteSpace=wrap;connectable=0;strokeColor=inherit;overflow=hidden;fillColor=#FFFF99;top=0;left=0;bottom=0;right=0;pointerEvents=1;" parent="cEWxc5GHdfLxTCo6FRgi-374" vertex="1">
          <mxGeometry width="110" height="40" as="geometry">
            <mxRectangle width="110" height="40" as="alternateBounds" />
          </mxGeometry>
        </mxCell>
        <mxCell id="cEWxc5GHdfLxTCo6FRgi-376" value="Inspection VPC Attachment" style="shape=partialRectangle;html=1;whiteSpace=wrap;connectable=0;strokeColor=inherit;overflow=hidden;fillColor=#FFFF99;top=0;left=0;bottom=0;right=0;pointerEvents=1;" parent="cEWxc5GHdfLxTCo6FRgi-374" vertex="1">
          <mxGeometry x="110" width="160" height="40" as="geometry">
            <mxRectangle width="160" height="40" as="alternateBounds" />
          </mxGeometry>
        </mxCell>
        <mxCell id="cEWxc5GHdfLxTCo6FRgi-377" value="" style="shape=tableRow;horizontal=0;startSize=0;swimlaneHead=0;swimlaneBody=0;strokeColor=inherit;top=0;left=0;bottom=0;right=0;collapsible=0;dropTarget=0;fillColor=none;points=[[0,0.5],[1,0.5]];portConstraint=eastwest;" parent="cEWxc5GHdfLxTCo6FRgi-373" vertex="1">
          <mxGeometry y="40" width="270" height="40" as="geometry" />
        </mxCell>
        <mxCell id="cEWxc5GHdfLxTCo6FRgi-378" value="10.3.0.0/16" style="shape=partialRectangle;html=1;whiteSpace=wrap;connectable=0;strokeColor=inherit;overflow=hidden;fillColor=none;top=0;left=0;bottom=0;right=0;pointerEvents=1;" parent="cEWxc5GHdfLxTCo6FRgi-377" vertex="1">
          <mxGeometry width="110" height="40" as="geometry">
            <mxRectangle width="110" height="40" as="alternateBounds" />
          </mxGeometry>
        </mxCell>
        <mxCell id="cEWxc5GHdfLxTCo6FRgi-379" value="TEST spoke VPC" style="shape=partialRectangle;html=1;whiteSpace=wrap;connectable=0;strokeColor=inherit;overflow=hidden;fillColor=none;top=0;left=0;bottom=0;right=0;pointerEvents=1;" parent="cEWxc5GHdfLxTCo6FRgi-377" vertex="1">
          <mxGeometry x="110" width="160" height="40" as="geometry">
            <mxRectangle width="160" height="40" as="alternateBounds" />
          </mxGeometry>
        </mxCell>
        <mxCell id="cEWxc5GHdfLxTCo6FRgi-380" value="" style="shape=tableRow;horizontal=0;startSize=0;swimlaneHead=0;swimlaneBody=0;strokeColor=inherit;top=0;left=0;bottom=0;right=0;collapsible=0;dropTarget=0;fillColor=none;points=[[0,0.5],[1,0.5]];portConstraint=eastwest;" parent="cEWxc5GHdfLxTCo6FRgi-373" vertex="1">
          <mxGeometry y="80" width="270" height="40" as="geometry" />
        </mxCell>
        <mxCell id="cEWxc5GHdfLxTCo6FRgi-381" value="" style="shape=partialRectangle;html=1;whiteSpace=wrap;connectable=0;strokeColor=inherit;overflow=hidden;fillColor=none;top=0;left=0;bottom=0;right=0;pointerEvents=1;" parent="cEWxc5GHdfLxTCo6FRgi-380" vertex="1">
          <mxGeometry width="110" height="40" as="geometry">
            <mxRectangle width="110" height="40" as="alternateBounds" />
          </mxGeometry>
        </mxCell>
        <mxCell id="cEWxc5GHdfLxTCo6FRgi-382" value="" style="shape=partialRectangle;html=1;whiteSpace=wrap;connectable=0;strokeColor=inherit;overflow=hidden;fillColor=none;top=0;left=0;bottom=0;right=0;pointerEvents=1;" parent="cEWxc5GHdfLxTCo6FRgi-380" vertex="1">
          <mxGeometry x="110" width="160" height="40" as="geometry">
            <mxRectangle width="160" height="40" as="alternateBounds" />
          </mxGeometry>
        </mxCell>
        <mxCell id="cEWxc5GHdfLxTCo6FRgi-383" value="TGW -&amp;gt; Inspection&lt;br&gt;&lt;br&gt;TGW Attachment" style="shape=process;whiteSpace=wrap;html=1;backgroundOutline=1;fillColor=#f8cecc;strokeColor=#b85450;" parent="cEWxc5GHdfLxTCo6FRgi-368" vertex="1">
          <mxGeometry width="270" height="60" as="geometry" />
        </mxCell>
        <mxCell id="cEWxc5GHdfLxTCo6FRgi-531" style="edgeStyle=orthogonalEdgeStyle;rounded=0;orthogonalLoop=1;jettySize=auto;html=1;exitX=0.25;exitY=1;exitDx=0;exitDy=0;entryX=0.25;entryY=0.25;entryDx=0;entryDy=0;entryPerimeter=0;fillColor=#f8cecc;strokeColor=#b85450;strokeWidth=2;" parent="1" source="cEWxc5GHdfLxTCo6FRgi-477" target="cEWxc5GHdfLxTCo6FRgi-507" edge="1">
          <mxGeometry relative="1" as="geometry" />
        </mxCell>
        <mxCell id="cEWxc5GHdfLxTCo6FRgi-533" style="edgeStyle=orthogonalEdgeStyle;rounded=0;orthogonalLoop=1;jettySize=auto;html=1;exitX=0.75;exitY=0;exitDx=0;exitDy=0;fillColor=#dae8fc;strokeColor=#6c8ebf;strokeWidth=2;" parent="1" source="cEWxc5GHdfLxTCo6FRgi-477" edge="1">
          <mxGeometry relative="1" as="geometry">
            <mxPoint x="-480" y="370" as="targetPoint" />
          </mxGeometry>
        </mxCell>
        <mxCell id="cEWxc5GHdfLxTCo6FRgi-477" value="SSC vCAP VPC" style="swimlane;whiteSpace=wrap;html=1;fillColor=#e1d5e7;strokeColor=#9673a6;" parent="1" vertex="1">
          <mxGeometry x="-980" y="490" width="410" height="200" as="geometry" />
        </mxCell>
        <mxCell id="cEWxc5GHdfLxTCo6FRgi-505" value="" style="verticalLabelPosition=bottom;sketch=0;html=1;fillColor=#F06650;strokeColor=#ffffff;verticalAlign=top;align=center;points=[];pointerEvents=1;shape=mxgraph.cisco_safe.compositeIcon;bgIcon=threat5;resIcon=mxgraph.cisco_safe.threat.threat_e8;" parent="cEWxc5GHdfLxTCo6FRgi-477" vertex="1">
          <mxGeometry x="150" y="60" width="120" height="103.5" as="geometry" />
        </mxCell>
        <mxCell id="cEWxc5GHdfLxTCo6FRgi-480" value="DEV VPC" style="swimlane;whiteSpace=wrap;html=1;fillColor=#d5e8d4;strokeColor=#82b366;" parent="1" vertex="1">
          <mxGeometry x="-1750" y="-425" width="310" height="415" as="geometry" />
        </mxCell>
        <mxCell id="cEWxc5GHdfLxTCo6FRgi-481" value="" style="shape=table;startSize=0;container=1;collapsible=0;childLayout=tableLayout;" parent="cEWxc5GHdfLxTCo6FRgi-480" vertex="1">
          <mxGeometry x="20" y="60" width="220" height="50" as="geometry" />
        </mxCell>
        <mxCell id="cEWxc5GHdfLxTCo6FRgi-482" value="" style="shape=tableRow;horizontal=0;startSize=0;swimlaneHead=0;swimlaneBody=0;strokeColor=inherit;top=0;left=0;bottom=0;right=0;collapsible=0;dropTarget=0;fillColor=none;points=[[0,0.5],[1,0.5]];portConstraint=eastwest;" parent="cEWxc5GHdfLxTCo6FRgi-481" vertex="1">
          <mxGeometry width="220" height="25" as="geometry" />
        </mxCell>
        <mxCell id="cEWxc5GHdfLxTCo6FRgi-483" value="0.0.0.0/0" style="shape=partialRectangle;html=1;whiteSpace=wrap;connectable=0;strokeColor=inherit;overflow=hidden;fillColor=none;top=0;left=0;bottom=0;right=0;pointerEvents=1;" parent="cEWxc5GHdfLxTCo6FRgi-482" vertex="1">
          <mxGeometry width="90" height="25" as="geometry">
            <mxRectangle width="90" height="25" as="alternateBounds" />
          </mxGeometry>
        </mxCell>
        <mxCell id="cEWxc5GHdfLxTCo6FRgi-484" value="GWLBe" style="shape=partialRectangle;html=1;whiteSpace=wrap;connectable=0;strokeColor=inherit;overflow=hidden;fillColor=none;top=0;left=0;bottom=0;right=0;pointerEvents=1;" parent="cEWxc5GHdfLxTCo6FRgi-482" vertex="1">
          <mxGeometry x="90" width="130" height="25" as="geometry">
            <mxRectangle width="130" height="25" as="alternateBounds" />
          </mxGeometry>
        </mxCell>
        <mxCell id="cEWxc5GHdfLxTCo6FRgi-485" value="" style="shape=tableRow;horizontal=0;startSize=0;swimlaneHead=0;swimlaneBody=0;strokeColor=inherit;top=0;left=0;bottom=0;right=0;collapsible=0;dropTarget=0;fillColor=none;points=[[0,0.5],[1,0.5]];portConstraint=eastwest;" parent="cEWxc5GHdfLxTCo6FRgi-481" vertex="1">
          <mxGeometry y="25" width="220" height="25" as="geometry" />
        </mxCell>
        <mxCell id="cEWxc5GHdfLxTCo6FRgi-486" value="10.2.0.0" style="shape=partialRectangle;html=1;whiteSpace=wrap;connectable=0;strokeColor=inherit;overflow=hidden;fillColor=none;top=0;left=0;bottom=0;right=0;pointerEvents=1;" parent="cEWxc5GHdfLxTCo6FRgi-485" vertex="1">
          <mxGeometry width="90" height="25" as="geometry">
            <mxRectangle width="90" height="25" as="alternateBounds" />
          </mxGeometry>
        </mxCell>
        <mxCell id="cEWxc5GHdfLxTCo6FRgi-487" value="Local" style="shape=partialRectangle;html=1;whiteSpace=wrap;connectable=0;strokeColor=inherit;overflow=hidden;fillColor=none;top=0;left=0;bottom=0;right=0;pointerEvents=1;" parent="cEWxc5GHdfLxTCo6FRgi-485" vertex="1">
          <mxGeometry x="90" width="130" height="25" as="geometry">
            <mxRectangle width="130" height="25" as="alternateBounds" />
          </mxGeometry>
        </mxCell>
        <mxCell id="cEWxc5GHdfLxTCo6FRgi-563" value="GWLB subnet" style="swimlane;whiteSpace=wrap;html=1;" parent="cEWxc5GHdfLxTCo6FRgi-480" vertex="1">
          <mxGeometry x="20" y="148" width="270" height="200" as="geometry" />
        </mxCell>
        <mxCell id="cEWxc5GHdfLxTCo6FRgi-564" value="ENI for TGW &lt;br&gt;Attachment" style="sketch=0;outlineConnect=0;fontColor=#232F3E;gradientColor=none;fillColor=#4D27AA;strokeColor=none;dashed=0;verticalLabelPosition=bottom;verticalAlign=top;align=center;html=1;fontSize=12;fontStyle=0;aspect=fixed;pointerEvents=1;shape=mxgraph.aws4.elastic_network_interface;" parent="cEWxc5GHdfLxTCo6FRgi-563" vertex="1">
          <mxGeometry y="63" width="64" height="64" as="geometry" />
        </mxCell>
        <mxCell id="cEWxc5GHdfLxTCo6FRgi-565" value="" style="shape=table;startSize=0;container=1;collapsible=0;childLayout=tableLayout;" parent="cEWxc5GHdfLxTCo6FRgi-480" vertex="1">
          <mxGeometry x="90" y="235" width="180" height="50" as="geometry" />
        </mxCell>
        <mxCell id="cEWxc5GHdfLxTCo6FRgi-566" value="" style="shape=tableRow;horizontal=0;startSize=0;swimlaneHead=0;swimlaneBody=0;strokeColor=inherit;top=0;left=0;bottom=0;right=0;collapsible=0;dropTarget=0;fillColor=none;points=[[0,0.5],[1,0.5]];portConstraint=eastwest;" parent="cEWxc5GHdfLxTCo6FRgi-565" vertex="1">
          <mxGeometry width="180" height="25" as="geometry" />
        </mxCell>
        <mxCell id="cEWxc5GHdfLxTCo6FRgi-567" value="0.0.0.0/0" style="shape=partialRectangle;html=1;whiteSpace=wrap;connectable=0;strokeColor=inherit;overflow=hidden;fillColor=none;top=0;left=0;bottom=0;right=0;pointerEvents=1;" parent="cEWxc5GHdfLxTCo6FRgi-566" vertex="1">
          <mxGeometry width="74" height="25" as="geometry">
            <mxRectangle width="74" height="25" as="alternateBounds" />
          </mxGeometry>
        </mxCell>
        <mxCell id="cEWxc5GHdfLxTCo6FRgi-568" value="TGW-Main attach" style="shape=partialRectangle;html=1;whiteSpace=wrap;connectable=0;strokeColor=inherit;overflow=hidden;fillColor=none;top=0;left=0;bottom=0;right=0;pointerEvents=1;" parent="cEWxc5GHdfLxTCo6FRgi-566" vertex="1">
          <mxGeometry x="74" width="106" height="25" as="geometry">
            <mxRectangle width="106" height="25" as="alternateBounds" />
          </mxGeometry>
        </mxCell>
        <mxCell id="cEWxc5GHdfLxTCo6FRgi-569" value="" style="shape=tableRow;horizontal=0;startSize=0;swimlaneHead=0;swimlaneBody=0;strokeColor=inherit;top=0;left=0;bottom=0;right=0;collapsible=0;dropTarget=0;fillColor=none;points=[[0,0.5],[1,0.5]];portConstraint=eastwest;" parent="cEWxc5GHdfLxTCo6FRgi-565" vertex="1">
          <mxGeometry y="25" width="180" height="25" as="geometry" />
        </mxCell>
        <mxCell id="cEWxc5GHdfLxTCo6FRgi-570" value="10.2.0.0" style="shape=partialRectangle;html=1;whiteSpace=wrap;connectable=0;strokeColor=inherit;overflow=hidden;fillColor=none;top=0;left=0;bottom=0;right=0;pointerEvents=1;" parent="cEWxc5GHdfLxTCo6FRgi-569" vertex="1">
          <mxGeometry width="74" height="25" as="geometry">
            <mxRectangle width="74" height="25" as="alternateBounds" />
          </mxGeometry>
        </mxCell>
        <mxCell id="cEWxc5GHdfLxTCo6FRgi-571" value="Local" style="shape=partialRectangle;html=1;whiteSpace=wrap;connectable=0;strokeColor=inherit;overflow=hidden;fillColor=none;top=0;left=0;bottom=0;right=0;pointerEvents=1;" parent="cEWxc5GHdfLxTCo6FRgi-569" vertex="1">
          <mxGeometry x="74" width="106" height="25" as="geometry">
            <mxRectangle width="106" height="25" as="alternateBounds" />
          </mxGeometry>
        </mxCell>
        <mxCell id="cEWxc5GHdfLxTCo6FRgi-491" style="edgeStyle=orthogonalEdgeStyle;rounded=0;orthogonalLoop=1;jettySize=auto;html=1;entryX=0;entryY=0.5;entryDx=0;entryDy=0;" parent="1" source="cEWxc5GHdfLxTCo6FRgi-482" target="cEWxc5GHdfLxTCo6FRgi-168" edge="1">
          <mxGeometry relative="1" as="geometry" />
        </mxCell>
        <mxCell id="cEWxc5GHdfLxTCo6FRgi-493" value="Outbound flows" style="edgeStyle=orthogonalEdgeStyle;rounded=0;orthogonalLoop=1;jettySize=auto;html=1;entryX=0.5;entryY=0;entryDx=0;entryDy=0;entryPerimeter=0;startArrow=none;startFill=0;exitX=1;exitY=0.5;exitDx=0;exitDy=0;fillColor=#d5e8d4;strokeColor=#82b366;strokeWidth=2;" parent="1" source="cEWxc5GHdfLxTCo6FRgi-168" target="cEWxc5GHdfLxTCo6FRgi-4" edge="1">
          <mxGeometry relative="1" as="geometry">
            <Array as="points">
              <mxPoint x="-1050" y="-300" />
              <mxPoint x="-1050" y="-230" />
              <mxPoint x="-795" y="-230" />
            </Array>
          </mxGeometry>
        </mxCell>
        <mxCell id="cEWxc5GHdfLxTCo6FRgi-495" style="edgeStyle=orthogonalEdgeStyle;rounded=0;orthogonalLoop=1;jettySize=auto;html=1;startArrow=classic;startFill=1;endArrow=classic;endFill=1;fillColor=#d5e8d4;strokeColor=#82b366;strokeWidth=2;" parent="1" source="cEWxc5GHdfLxTCo6FRgi-149" target="cEWxc5GHdfLxTCo6FRgi-4" edge="1">
          <mxGeometry relative="1" as="geometry">
            <Array as="points">
              <mxPoint x="-450" y="-415" />
              <mxPoint x="-450" y="-170" />
              <mxPoint x="-795" y="-170" />
            </Array>
          </mxGeometry>
        </mxCell>
        <mxCell id="cEWxc5GHdfLxTCo6FRgi-503" style="edgeStyle=orthogonalEdgeStyle;rounded=0;orthogonalLoop=1;jettySize=auto;html=1;exitX=0.25;exitY=1;exitDx=0;exitDy=0;entryX=0.25;entryY=0;entryDx=0;entryDy=0;fillColor=#f8cecc;strokeColor=#b85450;strokeWidth=2;" parent="1" source="cEWxc5GHdfLxTCo6FRgi-88" target="cEWxc5GHdfLxTCo6FRgi-477" edge="1">
          <mxGeometry relative="1" as="geometry" />
        </mxCell>
        <mxCell id="cEWxc5GHdfLxTCo6FRgi-532" value="Inbound flows" style="edgeStyle=orthogonalEdgeStyle;rounded=0;orthogonalLoop=1;jettySize=auto;html=1;exitX=0.88;exitY=0.25;exitDx=0;exitDy=0;exitPerimeter=0;entryX=0.75;entryY=1;entryDx=0;entryDy=0;fillColor=#dae8fc;strokeColor=#6c8ebf;strokeWidth=2;" parent="1" source="cEWxc5GHdfLxTCo6FRgi-507" target="cEWxc5GHdfLxTCo6FRgi-477" edge="1">
          <mxGeometry relative="1" as="geometry" />
        </mxCell>
        <mxCell id="cEWxc5GHdfLxTCo6FRgi-507" value="Internet" style="ellipse;shape=cloud;whiteSpace=wrap;html=1;" parent="1" vertex="1">
          <mxGeometry x="-940" y="710" width="290" height="170" as="geometry" />
        </mxCell>
        <mxCell id="cEWxc5GHdfLxTCo6FRgi-525" value="SSC vCAP -&amp;gt; MAIN&lt;br&gt;&lt;br&gt;TGW Attachment" style="shape=process;whiteSpace=wrap;html=1;backgroundOutline=1;fillColor=#f8cecc;strokeColor=#b85450;" parent="1" vertex="1">
          <mxGeometry x="-620" y="160" width="280" height="60" as="geometry" />
        </mxCell>
        <mxCell id="cEWxc5GHdfLxTCo6FRgi-511" value="TGW-ATT to Inspection VPC" style="group;fillColor=#FFFFFF;strokeColor=default;" parent="1" vertex="1" connectable="0">
          <mxGeometry x="-620" y="220" width="280" height="150" as="geometry" />
        </mxCell>
        <mxCell id="cEWxc5GHdfLxTCo6FRgi-512" value="" style="shape=table;startSize=0;container=1;collapsible=0;childLayout=tableLayout;swimlaneFillColor=none;fillColor=#f5f5f5;strokeColor=#666666;fontColor=#333333;" parent="cEWxc5GHdfLxTCo6FRgi-511" vertex="1">
          <mxGeometry width="280" height="30" as="geometry" />
        </mxCell>
        <mxCell id="cEWxc5GHdfLxTCo6FRgi-513" value="" style="shape=tableRow;horizontal=0;startSize=0;swimlaneHead=0;swimlaneBody=0;strokeColor=inherit;top=0;left=0;bottom=0;right=0;collapsible=0;dropTarget=0;fillColor=none;points=[[0,0.5],[1,0.5]];portConstraint=eastwest;" parent="cEWxc5GHdfLxTCo6FRgi-512" vertex="1">
          <mxGeometry width="280" height="30" as="geometry" />
        </mxCell>
        <mxCell id="cEWxc5GHdfLxTCo6FRgi-514" value="TGW RT - From-vCAP-RT" style="shape=partialRectangle;html=1;whiteSpace=wrap;connectable=0;strokeColor=inherit;overflow=hidden;fillColor=none;top=0;left=0;bottom=0;right=0;pointerEvents=1;" parent="cEWxc5GHdfLxTCo6FRgi-513" vertex="1">
          <mxGeometry width="280" height="30" as="geometry">
            <mxRectangle width="280" height="30" as="alternateBounds" />
          </mxGeometry>
        </mxCell>
        <mxCell id="cEWxc5GHdfLxTCo6FRgi-515" value="" style="shape=table;startSize=0;container=1;collapsible=0;childLayout=tableLayout;" parent="cEWxc5GHdfLxTCo6FRgi-511" vertex="1">
          <mxGeometry y="30" width="280" height="80" as="geometry" />
        </mxCell>
        <mxCell id="cEWxc5GHdfLxTCo6FRgi-516" value="" style="shape=tableRow;horizontal=0;startSize=0;swimlaneHead=0;swimlaneBody=0;strokeColor=inherit;top=0;left=0;bottom=0;right=0;collapsible=0;dropTarget=0;fillColor=none;points=[[0,0.5],[1,0.5]];portConstraint=eastwest;" parent="cEWxc5GHdfLxTCo6FRgi-515" vertex="1">
          <mxGeometry width="280" height="40" as="geometry" />
        </mxCell>
        <mxCell id="cEWxc5GHdfLxTCo6FRgi-517" value="100.96.192.0/23" style="shape=partialRectangle;html=1;whiteSpace=wrap;connectable=0;strokeColor=inherit;overflow=hidden;fillColor=none;top=0;left=0;bottom=0;right=0;pointerEvents=1;" parent="cEWxc5GHdfLxTCo6FRgi-516" vertex="1">
          <mxGeometry width="114" height="40" as="geometry">
            <mxRectangle width="114" height="40" as="alternateBounds" />
          </mxGeometry>
        </mxCell>
        <mxCell id="cEWxc5GHdfLxTCo6FRgi-518" value="Inspection VPC Attachment" style="shape=partialRectangle;html=1;whiteSpace=wrap;connectable=0;strokeColor=inherit;overflow=hidden;fillColor=none;top=0;left=0;bottom=0;right=0;pointerEvents=1;" parent="cEWxc5GHdfLxTCo6FRgi-516" vertex="1">
          <mxGeometry x="114" width="166" height="40" as="geometry">
            <mxRectangle width="166" height="40" as="alternateBounds" />
          </mxGeometry>
        </mxCell>
        <mxCell id="cEWxc5GHdfLxTCo6FRgi-519" value="" style="shape=tableRow;horizontal=0;startSize=0;swimlaneHead=0;swimlaneBody=0;strokeColor=inherit;top=0;left=0;bottom=0;right=0;collapsible=0;dropTarget=0;fillColor=none;points=[[0,0.5],[1,0.5]];portConstraint=eastwest;" parent="cEWxc5GHdfLxTCo6FRgi-515" vertex="1">
          <mxGeometry y="40" width="280" height="40" as="geometry" />
        </mxCell>
        <mxCell id="cEWxc5GHdfLxTCo6FRgi-520" value="10.0.0.0/8" style="shape=partialRectangle;html=1;whiteSpace=wrap;connectable=0;strokeColor=inherit;overflow=hidden;fillColor=none;top=0;left=0;bottom=0;right=0;pointerEvents=1;" parent="cEWxc5GHdfLxTCo6FRgi-519" vertex="1">
          <mxGeometry width="114" height="40" as="geometry">
            <mxRectangle width="114" height="40" as="alternateBounds" />
          </mxGeometry>
        </mxCell>
        <mxCell id="cEWxc5GHdfLxTCo6FRgi-521" value="Inspection VPC Attachment" style="shape=partialRectangle;html=1;whiteSpace=wrap;connectable=0;strokeColor=inherit;overflow=hidden;fillColor=none;top=0;left=0;bottom=0;right=0;pointerEvents=1;" parent="cEWxc5GHdfLxTCo6FRgi-519" vertex="1">
          <mxGeometry x="114" width="166" height="40" as="geometry">
            <mxRectangle width="166" height="40" as="alternateBounds" />
          </mxGeometry>
        </mxCell>
      </root>
    </mxGraphModel>
  </diagram>
</mxfile>
